solid 14mmHexPil
facet normal 0.0 0.0 -1.0
  outer loop
    vertex -1.4999999999999987 2.598076105117795 0.0
    vertex -1.4999999999999987 -2.5980761051178 0.0
    vertex -2.9999999999999987 1.7624791310017752e-16 0.0
  endloop
endfacet
facet normal 0.0 0.0 -1.0
  outer loop
    vertex -1.4999999999999987 -2.5980761051178 0.0
    vertex -1.4999999999999987 2.598076105117795 0.0
    vertex -1.44 -1.1026277852909614e-15 0.0
  endloop
endfacet
facet normal 0.0 0.0 -1.0
  outer loop
    vertex -1.44 -1.1026277852909614e-15 0.0
    vertex -1.4999999999999987 2.598076105117795 0.0
    vertex -1.412330803780652 0.2809300637032239 0.0
  endloop
endfacet
facet normal 0.0 0.0 -1.0
  outer loop
    vertex -1.412330803780652 0.2809300637032239 0.0
    vertex -1.4999999999999987 2.598076105117795 0.0
    vertex -1.330386526816253 0.5510641426057288 0.0
  endloop
endfacet
facet normal 0.0 0.0 -1.0
  outer loop
    vertex -1.330386526816253 0.5510641426057288 0.0
    vertex -1.4999999999999987 2.598076105117795 0.0
    vertex -1.197316241715665 0.8000211355482272 0.0
  endloop
endfacet
facet normal 0.0 0.0 -1.0
  outer loop
    vertex -1.197316241715665 0.8000211355482272 0.0
    vertex -1.4999999999999987 2.598076105117795 0.0
    vertex -1.0182337649086284 1.0182337649086284 0.0
  endloop
endfacet
facet normal 0.0 0.0 -1.0
  outer loop
    vertex -1.0182337649086284 1.0182337649086284 0.0
    vertex -1.4999999999999987 2.598076105117795 0.0
    vertex -0.8000211355482268 1.1973162417156653 0.0
  endloop
endfacet
facet normal 0.0 0.0 -1.0
  outer loop
    vertex -0.8000211355482268 1.1973162417156653 0.0
    vertex -1.4999999999999987 2.598076105117795 0.0
    vertex 1.4999999999999944 2.598076105117795 0.0
  endloop
endfacet
facet normal 0.0 0.0 -1.0
  outer loop
    vertex -0.8000211355482268 1.1973162417156653 0.0
    vertex 1.4999999999999944 2.598076105117795 0.0
    vertex -0.5510641426057291 1.3303865268162527 0.0
  endloop
endfacet
facet normal 0.0 0.0 -1.0
  outer loop
    vertex -0.5510641426057291 1.3303865268162527 0.0
    vertex 1.4999999999999944 2.598076105117795 0.0
    vertex -0.28093006370322454 1.4123308037806517 0.0
  endloop
endfacet
facet normal 0.0 0.0 -1.0
  outer loop
    vertex -0.28093006370322454 1.4123308037806517 0.0
    vertex 1.4999999999999944 2.598076105117795 0.0
    vertex 8.817456953860942e-17 1.44 0.0
  endloop
endfacet
facet normal 0.0 0.0 -1.0
  outer loop
    vertex 8.817456953860942e-17 1.44 0.0
    vertex 1.4999999999999944 2.598076105117795 0.0
    vertex 0.2809300637032247 1.4123308037806517 0.0
  endloop
endfacet
facet normal 0.0 0.0 -1.0
  outer loop
    vertex 0.2809300637032247 1.4123308037806517 0.0
    vertex 1.4999999999999944 2.598076105117795 0.0
    vertex 0.5510641426057293 1.3303865268162527 0.0
  endloop
endfacet
facet normal 0.0 0.0 -1.0
  outer loop
    vertex 0.5510641426057293 1.3303865268162527 0.0
    vertex 1.4999999999999944 2.598076105117795 0.0
    vertex 0.8000211355482272 1.1973162417156649 0.0
  endloop
endfacet
facet normal 0.0 0.0 -1.0
  outer loop
    vertex 0.8000211355482272 1.1973162417156649 0.0
    vertex 1.4999999999999944 2.598076105117795 0.0
    vertex 1.0182337649086284 1.0182337649086284 0.0
  endloop
endfacet
facet normal 0.0 0.0 -1.0
  outer loop
    vertex 1.0182337649086284 1.0182337649086284 0.0
    vertex 1.4999999999999944 2.598076105117795 0.0
    vertex 1.197316241715665 0.8000211355482272 0.0
  endloop
endfacet
facet normal 0.0 0.0 -1.0
  outer loop
    vertex 1.197316241715665 0.8000211355482272 0.0
    vertex 1.4999999999999944 2.598076105117795 0.0
    vertex 1.3303865268162527 0.5510641426057292 0.0
  endloop
endfacet
facet normal 0.0 0.0 -1.0
  outer loop
    vertex 1.3303865268162527 0.5510641426057292 0.0
    vertex 1.4999999999999944 2.598076105117795 0.0
    vertex 1.4123308037806517 0.28093006370322465 0.0
  endloop
endfacet
facet normal 0.0 0.0 -1.0
  outer loop
    vertex 1.4123308037806517 0.28093006370322465 0.0
    vertex 1.4999999999999944 2.598076105117795 0.0
    vertex 1.44 0.0 0.0
  endloop
endfacet
facet normal 0.0 0.0 -1.0
  outer loop
    vertex -1.4999999999999987 -2.5980761051178 0.0
    vertex -0.8000211355482251 -1.1973162417156664 0.0
    vertex 1.4999999999999944 -2.5980761051178 0.0
  endloop
endfacet
facet normal 0.0 0.0 -1.0
  outer loop
    vertex -0.8000211355482251 -1.1973162417156664 0.0
    vertex -1.4999999999999987 -2.5980761051178 0.0
    vertex -1.0182337649086266 -1.01823376490863 0.0
  endloop
endfacet
facet normal 0.0 0.0 -1.0
  outer loop
    vertex -1.0182337649086266 -1.01823376490863 0.0
    vertex -1.4999999999999987 -2.5980761051178 0.0
    vertex -1.197316241715664 -0.8000211355482287 0.0
  endloop
endfacet
facet normal 0.0 0.0 -1.0
  outer loop
    vertex -1.197316241715664 -0.8000211355482287 0.0
    vertex -1.4999999999999987 -2.5980761051178 0.0
    vertex -1.3303865268162522 -0.5510641426057309 0.0
  endloop
endfacet
facet normal 0.0 0.0 -1.0
  outer loop
    vertex -1.3303865268162522 -0.5510641426057309 0.0
    vertex -1.4999999999999987 -2.5980761051178 0.0
    vertex -1.4123308037806515 -0.2809300637032261 0.0
  endloop
endfacet
facet normal 0.0 0.0 -1.0
  outer loop
    vertex -1.4123308037806515 -0.2809300637032261 0.0
    vertex -1.4999999999999987 -2.5980761051178 0.0
    vertex -1.44 -1.1026277852909614e-15 0.0
  endloop
endfacet
facet normal 0.0 0.0 -1.0
  outer loop
    vertex 1.4999999999999944 -2.5980761051178 0.0
    vertex -0.8000211355482251 -1.1973162417156664 0.0
    vertex -0.5510641426057264 -1.330386526816254 0.0
  endloop
endfacet
facet normal 0.0 0.0 -1.0
  outer loop
    vertex 1.4999999999999944 -2.5980761051178 0.0
    vertex -0.5510641426057264 -1.330386526816254 0.0
    vertex -0.2809300637032215 -1.4123308037806523 0.0
  endloop
endfacet
facet normal 0.0 0.0 -1.0
  outer loop
    vertex 1.4999999999999944 -2.5980761051178 0.0
    vertex -0.2809300637032215 -1.4123308037806523 0.0
    vertex 3.572407064488712e-15 -1.44 0.0
  endloop
endfacet
facet normal 0.0 0.0 -1.0
  outer loop
    vertex 1.4999999999999944 -2.5980761051178 0.0
    vertex 3.572407064488712e-15 -1.44 0.0
    vertex 0.2809300637032285 -1.4123308037806508 0.0
  endloop
endfacet
facet normal 0.0 0.0 -1.0
  outer loop
    vertex 1.4999999999999944 -2.5980761051178 0.0
    vertex 0.2809300637032285 -1.4123308037806508 0.0
    vertex 0.5510641426057331 -1.3303865268162511 0.0
  endloop
endfacet
facet normal 0.0 0.0 -1.0
  outer loop
    vertex 1.4999999999999944 -2.5980761051178 0.0
    vertex 0.5510641426057331 -1.3303865268162511 0.0
    vertex 0.8000211355482308 -1.1973162417156626 0.0
  endloop
endfacet
facet normal 0.0 0.0 -1.0
  outer loop
    vertex 1.4999999999999944 -2.5980761051178 0.0
    vertex 0.8000211355482308 -1.1973162417156626 0.0
    vertex 1.018233764908632 -1.018233764908625 0.0
  endloop
endfacet
facet normal 0.0 0.0 -1.0
  outer loop
    vertex 1.4999999999999944 -2.5980761051178 0.0
    vertex 1.018233764908632 -1.018233764908625 0.0
    vertex 1.197316241715668 -0.800021135548223 0.0
  endloop
endfacet
facet normal 0.0 0.0 -1.0
  outer loop
    vertex 1.4999999999999944 -2.5980761051178 0.0
    vertex 1.197316241715668 -0.800021135548223 0.0
    vertex 1.330386526816255 -0.5510641426057242 0.0
  endloop
endfacet
facet normal 0.0 0.0 -1.0
  outer loop
    vertex 1.4999999999999944 -2.5980761051178 0.0
    vertex 1.330386526816255 -0.5510641426057242 0.0
    vertex 1.4123308037806528 -0.28093006370321905 0.0
  endloop
endfacet
facet normal 0.0 0.0 -1.0
  outer loop
    vertex 1.4999999999999944 -2.5980761051178 0.0
    vertex 1.4123308037806528 -0.28093006370321905 0.0
    vertex 1.44 0.0 0.0
  endloop
endfacet
facet normal 0.0 0.0 -1.0
  outer loop
    vertex 1.4999999999999944 -2.5980761051178 0.0
    vertex 1.44 0.0 0.0
    vertex 1.4999999999999944 2.598076105117795 0.0
  endloop
endfacet
facet normal 0.0 0.0 -1.0
  outer loop
    vertex 1.4999999999999944 -2.5980761051178 0.0
    vertex 1.4999999999999944 2.598076105117795 0.0
    vertex 2.999999999999989 -1.7624789721830967e-16 0.0
  endloop
endfacet
facet normal 0.0 0.0 1.0
  outer loop
    vertex -1.4999999999999987 -2.5980761051178 14.0
    vertex -1.4999999999999987 2.598076105117795 14.0
    vertex -2.9999999999999987 1.7624791310017752e-16 14.0
  endloop
endfacet
facet normal 0.0 0.0 1.0
  outer loop
    vertex -1.4999999999999987 2.598076105117795 14.0
    vertex -1.4999999999999987 -2.5980761051178 14.0
    vertex -1.44 -1.1026277852909614e-15 14.0
  endloop
endfacet
facet normal 0.0 0.0 1.0
  outer loop
    vertex -1.44 -1.1026277852909614e-15 14.0
    vertex -1.4999999999999987 -2.5980761051178 14.0
    vertex -1.4123308037806515 -0.2809300637032261 14.0
  endloop
endfacet
facet normal 0.0 0.0 1.0
  outer loop
    vertex -1.4123308037806515 -0.2809300637032261 14.0
    vertex -1.4999999999999987 -2.5980761051178 14.0
    vertex -1.3303865268162522 -0.5510641426057309 14.0
  endloop
endfacet
facet normal 0.0 0.0 1.0
  outer loop
    vertex -1.3303865268162522 -0.5510641426057309 14.0
    vertex -1.4999999999999987 -2.5980761051178 14.0
    vertex -1.197316241715664 -0.8000211355482287 14.0
  endloop
endfacet
facet normal 0.0 0.0 1.0
  outer loop
    vertex -1.197316241715664 -0.8000211355482287 14.0
    vertex -1.4999999999999987 -2.5980761051178 14.0
    vertex -1.0182337649086266 -1.01823376490863 14.0
  endloop
endfacet
facet normal 0.0 0.0 1.0
  outer loop
    vertex -1.0182337649086266 -1.01823376490863 14.0
    vertex -1.4999999999999987 -2.5980761051178 14.0
    vertex -0.8000211355482251 -1.1973162417156664 14.0
  endloop
endfacet
facet normal 0.0 0.0 1.0
  outer loop
    vertex -0.8000211355482251 -1.1973162417156664 14.0
    vertex -1.4999999999999987 -2.5980761051178 14.0
    vertex 1.4999999999999944 -2.5980761051178 14.0
  endloop
endfacet
facet normal 0.0 0.0 1.0
  outer loop
    vertex -0.8000211355482251 -1.1973162417156664 14.0
    vertex 1.4999999999999944 -2.5980761051178 14.0
    vertex -0.5510641426057264 -1.330386526816254 14.0
  endloop
endfacet
facet normal 0.0 0.0 1.0
  outer loop
    vertex -0.5510641426057264 -1.330386526816254 14.0
    vertex 1.4999999999999944 -2.5980761051178 14.0
    vertex -0.2809300637032215 -1.4123308037806523 14.0
  endloop
endfacet
facet normal 0.0 0.0 1.0
  outer loop
    vertex -0.2809300637032215 -1.4123308037806523 14.0
    vertex 1.4999999999999944 -2.5980761051178 14.0
    vertex 3.572407064488712e-15 -1.44 14.0
  endloop
endfacet
facet normal 0.0 0.0 1.0
  outer loop
    vertex 3.572407064488712e-15 -1.44 14.0
    vertex 1.4999999999999944 -2.5980761051178 14.0
    vertex 0.2809300637032285 -1.4123308037806508 14.0
  endloop
endfacet
facet normal 0.0 0.0 1.0
  outer loop
    vertex 0.2809300637032285 -1.4123308037806508 14.0
    vertex 1.4999999999999944 -2.5980761051178 14.0
    vertex 0.5510641426057331 -1.3303865268162511 14.0
  endloop
endfacet
facet normal 0.0 0.0 1.0
  outer loop
    vertex 0.5510641426057331 -1.3303865268162511 14.0
    vertex 1.4999999999999944 -2.5980761051178 14.0
    vertex 0.8000211355482308 -1.1973162417156626 14.0
  endloop
endfacet
facet normal 0.0 0.0 1.0
  outer loop
    vertex 0.8000211355482308 -1.1973162417156626 14.0
    vertex 1.4999999999999944 -2.5980761051178 14.0
    vertex 1.018233764908632 -1.018233764908625 14.0
  endloop
endfacet
facet normal 0.0 0.0 1.0
  outer loop
    vertex 1.018233764908632 -1.018233764908625 14.0
    vertex 1.4999999999999944 -2.5980761051178 14.0
    vertex 1.197316241715668 -0.800021135548223 14.0
  endloop
endfacet
facet normal 0.0 0.0 1.0
  outer loop
    vertex 1.197316241715668 -0.800021135548223 14.0
    vertex 1.4999999999999944 -2.5980761051178 14.0
    vertex 1.330386526816255 -0.5510641426057242 14.0
  endloop
endfacet
facet normal 0.0 0.0 1.0
  outer loop
    vertex 1.330386526816255 -0.5510641426057242 14.0
    vertex 1.4999999999999944 -2.5980761051178 14.0
    vertex 1.4123308037806528 -0.28093006370321905 14.0
  endloop
endfacet
facet normal 0.0 0.0 1.0
  outer loop
    vertex 1.4123308037806528 -0.28093006370321905 14.0
    vertex 1.4999999999999944 -2.5980761051178 14.0
    vertex 1.44 0.0 14.0
  endloop
endfacet
facet normal 0.0 0.0 1.0
  outer loop
    vertex -1.4999999999999987 2.598076105117795 14.0
    vertex -0.8000211355482268 1.1973162417156653 14.0
    vertex 1.4999999999999944 2.598076105117795 14.0
  endloop
endfacet
facet normal 0.0 0.0 1.0
  outer loop
    vertex -0.8000211355482268 1.1973162417156653 14.0
    vertex -1.4999999999999987 2.598076105117795 14.0
    vertex -1.0182337649086284 1.0182337649086284 14.0
  endloop
endfacet
facet normal 0.0 0.0 1.0
  outer loop
    vertex -1.0182337649086284 1.0182337649086284 14.0
    vertex -1.4999999999999987 2.598076105117795 14.0
    vertex -1.197316241715665 0.8000211355482272 14.0
  endloop
endfacet
facet normal 0.0 0.0 1.0
  outer loop
    vertex -1.197316241715665 0.8000211355482272 14.0
    vertex -1.4999999999999987 2.598076105117795 14.0
    vertex -1.330386526816253 0.5510641426057288 14.0
  endloop
endfacet
facet normal 0.0 0.0 1.0
  outer loop
    vertex -1.330386526816253 0.5510641426057288 14.0
    vertex -1.4999999999999987 2.598076105117795 14.0
    vertex -1.412330803780652 0.2809300637032239 14.0
  endloop
endfacet
facet normal 0.0 0.0 1.0
  outer loop
    vertex -1.412330803780652 0.2809300637032239 14.0
    vertex -1.4999999999999987 2.598076105117795 14.0
    vertex -1.44 -1.1026277852909614e-15 14.0
  endloop
endfacet
facet normal 0.0 0.0 1.0
  outer loop
    vertex 1.4999999999999944 2.598076105117795 14.0
    vertex -0.8000211355482268 1.1973162417156653 14.0
    vertex -0.5510641426057291 1.3303865268162527 14.0
  endloop
endfacet
facet normal 0.0 0.0 1.0
  outer loop
    vertex 1.4999999999999944 2.598076105117795 14.0
    vertex -0.5510641426057291 1.3303865268162527 14.0
    vertex -0.28093006370322454 1.4123308037806517 14.0
  endloop
endfacet
facet normal 0.0 0.0 1.0
  outer loop
    vertex 1.4999999999999944 2.598076105117795 14.0
    vertex -0.28093006370322454 1.4123308037806517 14.0
    vertex 8.817456953860942e-17 1.44 14.0
  endloop
endfacet
facet normal 0.0 0.0 1.0
  outer loop
    vertex 1.4999999999999944 2.598076105117795 14.0
    vertex 8.817456953860942e-17 1.44 14.0
    vertex 0.2809300637032247 1.4123308037806517 14.0
  endloop
endfacet
facet normal 0.0 0.0 1.0
  outer loop
    vertex 1.4999999999999944 2.598076105117795 14.0
    vertex 0.2809300637032247 1.4123308037806517 14.0
    vertex 0.5510641426057293 1.3303865268162527 14.0
  endloop
endfacet
facet normal 0.0 0.0 1.0
  outer loop
    vertex 1.4999999999999944 2.598076105117795 14.0
    vertex 0.5510641426057293 1.3303865268162527 14.0
    vertex 0.8000211355482272 1.1973162417156649 14.0
  endloop
endfacet
facet normal 0.0 0.0 1.0
  outer loop
    vertex 1.4999999999999944 2.598076105117795 14.0
    vertex 0.8000211355482272 1.1973162417156649 14.0
    vertex 1.0182337649086284 1.0182337649086284 14.0
  endloop
endfacet
facet normal 0.0 0.0 1.0
  outer loop
    vertex 1.4999999999999944 2.598076105117795 14.0
    vertex 1.0182337649086284 1.0182337649086284 14.0
    vertex 1.197316241715665 0.8000211355482272 14.0
  endloop
endfacet
facet normal 0.0 0.0 1.0
  outer loop
    vertex 1.4999999999999944 2.598076105117795 14.0
    vertex 1.197316241715665 0.8000211355482272 14.0
    vertex 1.3303865268162527 0.5510641426057292 14.0
  endloop
endfacet
facet normal 0.0 0.0 1.0
  outer loop
    vertex 1.4999999999999944 2.598076105117795 14.0
    vertex 1.3303865268162527 0.5510641426057292 14.0
    vertex 1.4123308037806517 0.28093006370322465 14.0
  endloop
endfacet
facet normal 0.0 0.0 1.0
  outer loop
    vertex 1.4999999999999944 2.598076105117795 14.0
    vertex 1.4123308037806517 0.28093006370322465 14.0
    vertex 1.44 0.0 14.0
  endloop
endfacet
facet normal 0.0 0.0 1.0
  outer loop
    vertex 1.4999999999999944 2.598076105117795 14.0
    vertex 1.44 0.0 14.0
    vertex 1.4999999999999944 -2.5980761051178 14.0
  endloop
endfacet
facet normal 0.0 0.0 1.0
  outer loop
    vertex 1.4999999999999944 2.598076105117795 14.0
    vertex 1.4999999999999944 -2.5980761051178 14.0
    vertex 2.999999999999989 -1.7624789721830967e-16 14.0
  endloop
endfacet
facet normal 0.0 1.0 0.0
  outer loop
    vertex -1.4999999999999987 2.598076105117795 14.0
    vertex 1.4999999999999944 2.598076105117795 0.0
    vertex -1.4999999999999987 2.598076105117795 0.0
  endloop
endfacet
facet normal 0.0 1.0 0.0
  outer loop
    vertex 1.4999999999999944 2.598076105117795 0.0
    vertex -1.4999999999999987 2.598076105117795 14.0
    vertex 1.4999999999999944 2.598076105117795 14.0
  endloop
endfacet
facet normal 0.8660253949314789 0.5000000153337756 0.0
  outer loop
    vertex 1.4999999999999944 2.598076105117795 0.0
    vertex 2.999999999999989 -1.7624789721830967e-16 14.0
    vertex 2.999999999999989 -1.7624789721830967e-16 0.0
  endloop
endfacet
facet normal 0.8660253949314789 0.5000000153337756 0.0
  outer loop
    vertex 2.999999999999989 -1.7624789721830967e-16 14.0
    vertex 1.4999999999999944 2.598076105117795 0.0
    vertex 1.4999999999999944 2.598076105117795 14.0
  endloop
endfacet
facet normal 0.8660253949314795 -0.5000000153337749 0.0
  outer loop
    vertex 2.999999999999989 -1.7624789721830967e-16 0.0
    vertex 1.4999999999999944 -2.5980761051178 14.0
    vertex 1.4999999999999944 -2.5980761051178 0.0
  endloop
endfacet
facet normal 0.8660253949314795 -0.5000000153337749 0.0
  outer loop
    vertex 1.4999999999999944 -2.5980761051178 14.0
    vertex 2.999999999999989 -1.7624789721830967e-16 0.0
    vertex 2.999999999999989 -1.7624789721830967e-16 14.0
  endloop
endfacet
facet normal -0.0 -1.0 -0.0
  outer loop
    vertex 1.4999999999999944 -2.5980761051178 14.0
    vertex -1.4999999999999987 -2.5980761051178 0.0
    vertex 1.4999999999999944 -2.5980761051178 0.0
  endloop
endfacet
facet normal -0.0 -1.0 -0.0
  outer loop
    vertex -1.4999999999999987 -2.5980761051178 0.0
    vertex 1.4999999999999944 -2.5980761051178 14.0
    vertex -1.4999999999999987 -2.5980761051178 14.0
  endloop
endfacet
facet normal -0.8660253949314787 -0.5000000153337762 -0.0
  outer loop
    vertex -2.9999999999999987 1.7624791310017752e-16 14.0
    vertex -1.4999999999999987 -2.5980761051178 0.0
    vertex -1.4999999999999987 -2.5980761051178 14.0
  endloop
endfacet
facet normal -0.8660253949314787 -0.5000000153337762 -0.0
  outer loop
    vertex -1.4999999999999987 -2.5980761051178 0.0
    vertex -2.9999999999999987 1.7624791310017752e-16 14.0
    vertex -2.9999999999999987 1.7624791310017752e-16 0.0
  endloop
endfacet
facet normal -0.8660253949314781 0.500000015333777 0.0
  outer loop
    vertex -1.4999999999999987 2.598076105117795 14.0
    vertex -2.9999999999999987 1.7624791310017752e-16 0.0
    vertex -2.9999999999999987 1.7624791310017752e-16 14.0
  endloop
endfacet
facet normal -0.8660253949314781 0.500000015333777 0.0
  outer loop
    vertex -2.9999999999999987 1.7624791310017752e-16 0.0
    vertex -1.4999999999999987 2.598076105117795 14.0
    vertex -1.4999999999999987 2.598076105117795 0.0
  endloop
endfacet
facet normal -0.995184726672197 0.0980171403295588 0.0
  outer loop
    vertex 1.44 0.0 14.0
    vertex 1.4123308037806528 -0.28093006370321905 0.0
    vertex 1.4123308037806528 -0.28093006370321905 14.0
  endloop
endfacet
facet normal -0.995184726672197 0.0980171403295588 0.0
  outer loop
    vertex 1.4123308037806528 -0.28093006370321905 0.0
    vertex 1.44 0.0 14.0
    vertex 1.44 0.0 0.0
  endloop
endfacet
facet normal -0.9569403357322099 0.29028467725445867 0.0
  outer loop
    vertex 1.4123308037806528 -0.28093006370321905 14.0
    vertex 1.330386526816255 -0.5510641426057242 0.0
    vertex 1.330386526816255 -0.5510641426057242 14.0
  endloop
endfacet
facet normal -0.9569403357322099 0.29028467725445867 0.0
  outer loop
    vertex 1.330386526816255 -0.5510641426057242 0.0
    vertex 1.4123308037806528 -0.28093006370321905 14.0
    vertex 1.4123308037806528 -0.28093006370321905 0.0
  endloop
endfacet
facet normal -0.881921264348357 0.47139673682599387 0.0
  outer loop
    vertex 1.330386526816255 -0.5510641426057242 14.0
    vertex 1.197316241715668 -0.800021135548223 0.0
    vertex 1.197316241715668 -0.800021135548223 14.0
  endloop
endfacet
facet normal -0.881921264348357 0.47139673682599387 0.0
  outer loop
    vertex 1.197316241715668 -0.800021135548223 0.0
    vertex 1.330386526816255 -0.5510641426057242 14.0
    vertex 1.330386526816255 -0.5510641426057242 0.0
  endloop
endfacet
facet normal -0.7730104533627391 0.6343932841636428 0.0
  outer loop
    vertex 1.197316241715668 -0.800021135548223 14.0
    vertex 1.018233764908632 -1.018233764908625 0.0
    vertex 1.018233764908632 -1.018233764908625 14.0
  endloop
endfacet
facet normal -0.7730104533627391 0.6343932841636428 0.0
  outer loop
    vertex 1.018233764908632 -1.018233764908625 0.0
    vertex 1.197316241715668 -0.800021135548223 14.0
    vertex 1.197316241715668 -0.800021135548223 0.0
  endloop
endfacet
facet normal -0.634393284163648 0.7730104533627349 0.0
  outer loop
    vertex 0.8000211355482308 -1.1973162417156626 14.0
    vertex 1.018233764908632 -1.018233764908625 0.0
    vertex 0.8000211355482308 -1.1973162417156626 0.0
  endloop
endfacet
facet normal -0.634393284163648 0.7730104533627349 0.0
  outer loop
    vertex 1.018233764908632 -1.018233764908625 0.0
    vertex 0.8000211355482308 -1.1973162417156626 14.0
    vertex 1.018233764908632 -1.018233764908625 14.0
  endloop
endfacet
facet normal -0.47139673682599975 0.881921264348354 0.0
  outer loop
    vertex 0.5510641426057331 -1.3303865268162511 14.0
    vertex 0.8000211355482308 -1.1973162417156626 0.0
    vertex 0.5510641426057331 -1.3303865268162511 0.0
  endloop
endfacet
facet normal -0.47139673682599975 0.881921264348354 0.0
  outer loop
    vertex 0.8000211355482308 -1.1973162417156626 0.0
    vertex 0.5510641426057331 -1.3303865268162511 14.0
    vertex 0.8000211355482308 -1.1973162417156626 14.0
  endloop
endfacet
facet normal -0.29028467725446494 0.956940335732208 0.0
  outer loop
    vertex 0.2809300637032285 -1.4123308037806508 14.0
    vertex 0.5510641426057331 -1.3303865268162511 0.0
    vertex 0.2809300637032285 -1.4123308037806508 0.0
  endloop
endfacet
facet normal -0.29028467725446494 0.956940335732208 0.0
  outer loop
    vertex 0.5510641426057331 -1.3303865268162511 0.0
    vertex 0.2809300637032285 -1.4123308037806508 14.0
    vertex 0.5510641426057331 -1.3303865268162511 14.0
  endloop
endfacet
facet normal -0.09801714032956359 0.9951847266721967 0.0
  outer loop
    vertex 3.572407064488712e-15 -1.44 14.0
    vertex 0.2809300637032285 -1.4123308037806508 0.0
    vertex 3.572407064488712e-15 -1.44 0.0
  endloop
endfacet
facet normal -0.09801714032956359 0.9951847266721967 0.0
  outer loop
    vertex 0.2809300637032285 -1.4123308037806508 0.0
    vertex 3.572407064488712e-15 -1.44 14.0
    vertex 0.2809300637032285 -1.4123308037806508 14.0
  endloop
endfacet
facet normal 0.09801714032955856 0.995184726672197 0.0
  outer loop
    vertex -0.2809300637032215 -1.4123308037806523 14.0
    vertex 3.572407064488712e-15 -1.44 0.0
    vertex -0.2809300637032215 -1.4123308037806523 0.0
  endloop
endfacet
facet normal 0.09801714032955856 0.995184726672197 0.0
  outer loop
    vertex 3.572407064488712e-15 -1.44 0.0
    vertex -0.2809300637032215 -1.4123308037806523 14.0
    vertex 3.572407064488712e-15 -1.44 14.0
  endloop
endfacet
facet normal 0.2902846772544601 0.9569403357322096 0.0
  outer loop
    vertex -0.5510641426057264 -1.330386526816254 14.0
    vertex -0.2809300637032215 -1.4123308037806523 0.0
    vertex -0.5510641426057264 -1.330386526816254 0.0
  endloop
endfacet
facet normal 0.2902846772544601 0.9569403357322096 0.0
  outer loop
    vertex -0.2809300637032215 -1.4123308037806523 0.0
    vertex -0.5510641426057264 -1.330386526816254 14.0
    vertex -0.2809300637032215 -1.4123308037806523 14.0
  endloop
endfacet
facet normal 0.47139673682599603 0.881921264348356 0.0
  outer loop
    vertex -0.8000211355482251 -1.1973162417156664 14.0
    vertex -0.5510641426057264 -1.330386526816254 0.0
    vertex -0.8000211355482251 -1.1973162417156664 0.0
  endloop
endfacet
facet normal 0.47139673682599603 0.881921264348356 0.0
  outer loop
    vertex -0.5510641426057264 -1.330386526816254 0.0
    vertex -0.8000211355482251 -1.1973162417156664 14.0
    vertex -0.5510641426057264 -1.330386526816254 14.0
  endloop
endfacet
facet normal 0.6343932841636445 0.7730104533627378 0.0
  outer loop
    vertex -1.0182337649086266 -1.01823376490863 14.0
    vertex -0.8000211355482251 -1.1973162417156664 0.0
    vertex -1.0182337649086266 -1.01823376490863 0.0
  endloop
endfacet
facet normal 0.6343932841636445 0.7730104533627378 0.0
  outer loop
    vertex -0.8000211355482251 -1.1973162417156664 0.0
    vertex -1.0182337649086266 -1.01823376490863 14.0
    vertex -0.8000211355482251 -1.1973162417156664 14.0
  endloop
endfacet
facet normal 0.7730104533627358 0.6343932841636469 0.0
  outer loop
    vertex -1.197316241715664 -0.8000211355482287 0.0
    vertex -1.0182337649086266 -1.01823376490863 14.0
    vertex -1.0182337649086266 -1.01823376490863 0.0
  endloop
endfacet
facet normal 0.7730104533627358 0.6343932841636469 0.0
  outer loop
    vertex -1.0182337649086266 -1.01823376490863 14.0
    vertex -1.197316241715664 -0.8000211355482287 0.0
    vertex -1.197316241715664 -0.8000211355482287 14.0
  endloop
endfacet
facet normal 0.8819212643483543 0.4713967368259989 0.0
  outer loop
    vertex -1.3303865268162522 -0.5510641426057309 0.0
    vertex -1.197316241715664 -0.8000211355482287 14.0
    vertex -1.197316241715664 -0.8000211355482287 0.0
  endloop
endfacet
facet normal 0.8819212643483543 0.4713967368259989 0.0
  outer loop
    vertex -1.197316241715664 -0.8000211355482287 14.0
    vertex -1.3303865268162522 -0.5510641426057309 0.0
    vertex -1.3303865268162522 -0.5510641426057309 14.0
  endloop
endfacet
facet normal 0.9569403357322087 0.29028467725446316 0.0
  outer loop
    vertex -1.4123308037806515 -0.2809300637032261 0.0
    vertex -1.3303865268162522 -0.5510641426057309 14.0
    vertex -1.3303865268162522 -0.5510641426057309 0.0
  endloop
endfacet
facet normal 0.9569403357322087 0.29028467725446316 0.0
  outer loop
    vertex -1.3303865268162522 -0.5510641426057309 14.0
    vertex -1.4123308037806515 -0.2809300637032261 0.0
    vertex -1.4123308037806515 -0.2809300637032261 14.0
  endloop
endfacet
facet normal 0.9951847266721969 0.09801714032956171 0.0
  outer loop
    vertex -1.44 -1.1026277852909614e-15 0.0
    vertex -1.4123308037806515 -0.2809300637032261 14.0
    vertex -1.4123308037806515 -0.2809300637032261 0.0
  endloop
endfacet
facet normal 0.9951847266721969 0.09801714032956171 0.0
  outer loop
    vertex -1.4123308037806515 -0.2809300637032261 14.0
    vertex -1.44 -1.1026277852909614e-15 0.0
    vertex -1.44 -1.1026277852909614e-15 14.0
  endloop
endfacet
facet normal 0.995184726672197 -0.09801714032955984 0.0
  outer loop
    vertex -1.412330803780652 0.2809300637032239 0.0
    vertex -1.44 -1.1026277852909614e-15 14.0
    vertex -1.44 -1.1026277852909614e-15 0.0
  endloop
endfacet
facet normal 0.995184726672197 -0.09801714032955984 0.0
  outer loop
    vertex -1.44 -1.1026277852909614e-15 14.0
    vertex -1.412330803780652 0.2809300637032239 0.0
    vertex -1.412330803780652 0.2809300637032239 14.0
  endloop
endfacet
facet normal 0.9569403357322088 -0.2902846772544625 0.0
  outer loop
    vertex -1.330386526816253 0.5510641426057288 0.0
    vertex -1.412330803780652 0.2809300637032239 14.0
    vertex -1.412330803780652 0.2809300637032239 0.0
  endloop
endfacet
facet normal 0.9569403357322088 -0.2902846772544625 0.0
  outer loop
    vertex -1.412330803780652 0.2809300637032239 14.0
    vertex -1.330386526816253 0.5510641426057288 0.0
    vertex -1.330386526816253 0.5510641426057288 14.0
  endloop
endfacet
facet normal 0.8819212643483556 -0.47139673682599675 0.0
  outer loop
    vertex -1.197316241715665 0.8000211355482272 0.0
    vertex -1.330386526816253 0.5510641426057288 14.0
    vertex -1.330386526816253 0.5510641426057288 0.0
  endloop
endfacet
facet normal 0.8819212643483556 -0.47139673682599675 0.0
  outer loop
    vertex -1.330386526816253 0.5510641426057288 14.0
    vertex -1.197316241715665 0.8000211355482272 0.0
    vertex -1.197316241715665 0.8000211355482272 14.0
  endloop
endfacet
facet normal 0.7730104533627367 -0.6343932841636458 0.0
  outer loop
    vertex -1.0182337649086284 1.0182337649086284 0.0
    vertex -1.197316241715665 0.8000211355482272 14.0
    vertex -1.197316241715665 0.8000211355482272 0.0
  endloop
endfacet
facet normal 0.7730104533627367 -0.6343932841636458 0.0
  outer loop
    vertex -1.197316241715665 0.8000211355482272 14.0
    vertex -1.0182337649086284 1.0182337649086284 0.0
    vertex -1.0182337649086284 1.0182337649086284 14.0
  endloop
endfacet
facet normal 0.6343932841636456 -0.773010453362737 0.0
  outer loop
    vertex -0.8000211355482268 1.1973162417156653 14.0
    vertex -1.0182337649086284 1.0182337649086284 0.0
    vertex -0.8000211355482268 1.1973162417156653 0.0
  endloop
endfacet
facet normal 0.6343932841636456 -0.773010453362737 0.0
  outer loop
    vertex -1.0182337649086284 1.0182337649086284 0.0
    vertex -0.8000211355482268 1.1973162417156653 14.0
    vertex -1.0182337649086284 1.0182337649086284 14.0
  endloop
endfacet
facet normal 0.47139673682599686 -0.8819212643483554 0.0
  outer loop
    vertex -0.5510641426057291 1.3303865268162527 14.0
    vertex -0.8000211355482268 1.1973162417156653 0.0
    vertex -0.5510641426057291 1.3303865268162527 0.0
  endloop
endfacet
facet normal 0.47139673682599686 -0.8819212643483554 0.0
  outer loop
    vertex -0.8000211355482268 1.1973162417156653 0.0
    vertex -0.5510641426057291 1.3303865268162527 14.0
    vertex -0.8000211355482268 1.1973162417156653 14.0
  endloop
endfacet
facet normal 0.2902846772544627 -0.9569403357322088 0.0
  outer loop
    vertex -0.28093006370322454 1.4123308037806517 14.0
    vertex -0.5510641426057291 1.3303865268162527 0.0
    vertex -0.28093006370322454 1.4123308037806517 0.0
  endloop
endfacet
facet normal 0.2902846772544627 -0.9569403357322088 0.0
  outer loop
    vertex -0.5510641426057291 1.3303865268162527 0.0
    vertex -0.28093006370322454 1.4123308037806517 14.0
    vertex -0.5510641426057291 1.3303865268162527 14.0
  endloop
endfacet
facet normal 0.09801714032956058 -0.9951847266721969 0.0
  outer loop
    vertex 8.817456953860942e-17 1.44 14.0
    vertex -0.28093006370322454 1.4123308037806517 0.0
    vertex 8.817456953860942e-17 1.44 0.0
  endloop
endfacet
facet normal 0.09801714032956058 -0.9951847266721969 0.0
  outer loop
    vertex -0.28093006370322454 1.4123308037806517 0.0
    vertex 8.817456953860942e-17 1.44 14.0
    vertex -0.28093006370322454 1.4123308037806517 14.0
  endloop
endfacet
facet normal -0.09801714032956058 -0.9951847266721969 -0.0
  outer loop
    vertex 0.2809300637032247 1.4123308037806517 14.0
    vertex 8.817456953860942e-17 1.44 0.0
    vertex 0.2809300637032247 1.4123308037806517 0.0
  endloop
endfacet
facet normal -0.09801714032956058 -0.9951847266721969 -0.0
  outer loop
    vertex 8.817456953860942e-17 1.44 0.0
    vertex 0.2809300637032247 1.4123308037806517 14.0
    vertex 8.817456953860942e-17 1.44 14.0
  endloop
endfacet
facet normal -0.2902846772544627 -0.9569403357322088 -0.0
  outer loop
    vertex 0.5510641426057293 1.3303865268162527 14.0
    vertex 0.2809300637032247 1.4123308037806517 0.0
    vertex 0.5510641426057293 1.3303865268162527 0.0
  endloop
endfacet
facet normal -0.2902846772544627 -0.9569403357322088 -0.0
  outer loop
    vertex 0.2809300637032247 1.4123308037806517 0.0
    vertex 0.5510641426057293 1.3303865268162527 14.0
    vertex 0.2809300637032247 1.4123308037806517 14.0
  endloop
endfacet
facet normal -0.4713967368259981 -0.8819212643483547 -0.0
  outer loop
    vertex 0.8000211355482272 1.1973162417156649 14.0
    vertex 0.5510641426057293 1.3303865268162527 0.0
    vertex 0.8000211355482272 1.1973162417156649 0.0
  endloop
endfacet
facet normal -0.4713967368259981 -0.8819212643483547 -0.0
  outer loop
    vertex 0.5510641426057293 1.3303865268162527 0.0
    vertex 0.8000211355482272 1.1973162417156649 14.0
    vertex 0.5510641426057293 1.3303865268162527 14.0
  endloop
endfacet
facet normal -0.6343932841636452 -0.7730104533627373 -0.0
  outer loop
    vertex 1.0182337649086284 1.0182337649086284 14.0
    vertex 0.8000211355482272 1.1973162417156649 0.0
    vertex 1.0182337649086284 1.0182337649086284 0.0
  endloop
endfacet
facet normal -0.6343932841636452 -0.7730104533627373 -0.0
  outer loop
    vertex 0.8000211355482272 1.1973162417156649 0.0
    vertex 1.0182337649086284 1.0182337649086284 14.0
    vertex 0.8000211355482272 1.1973162417156649 14.0
  endloop
endfacet
facet normal -0.773010453362737 -0.6343932841636455 -0.0
  outer loop
    vertex 1.0182337649086284 1.0182337649086284 14.0
    vertex 1.197316241715665 0.8000211355482272 0.0
    vertex 1.197316241715665 0.8000211355482272 14.0
  endloop
endfacet
facet normal -0.773010453362737 -0.6343932841636455 -0.0
  outer loop
    vertex 1.197316241715665 0.8000211355482272 0.0
    vertex 1.0182337649086284 1.0182337649086284 14.0
    vertex 1.0182337649086284 1.0182337649086284 0.0
  endloop
endfacet
facet normal -0.8819212643483552 -0.47139673682599753 -0.0
  outer loop
    vertex 1.197316241715665 0.8000211355482272 14.0
    vertex 1.3303865268162527 0.5510641426057292 0.0
    vertex 1.3303865268162527 0.5510641426057292 14.0
  endloop
endfacet
facet normal -0.8819212643483552 -0.47139673682599753 -0.0
  outer loop
    vertex 1.3303865268162527 0.5510641426057292 0.0
    vertex 1.197316241715665 0.8000211355482272 14.0
    vertex 1.197316241715665 0.8000211355482272 0.0
  endloop
endfacet
facet normal -0.9569403357322088 -0.2902846772544627 -0.0
  outer loop
    vertex 1.3303865268162527 0.5510641426057292 14.0
    vertex 1.4123308037806517 0.28093006370322465 0.0
    vertex 1.4123308037806517 0.28093006370322465 14.0
  endloop
endfacet
facet normal -0.9569403357322088 -0.2902846772544627 -0.0
  outer loop
    vertex 1.4123308037806517 0.28093006370322465 0.0
    vertex 1.3303865268162527 0.5510641426057292 14.0
    vertex 1.3303865268162527 0.5510641426057292 0.0
  endloop
endfacet
facet normal -0.9951847266721969 -0.09801714032956058 -0.0
  outer loop
    vertex 1.4123308037806517 0.28093006370322465 14.0
    vertex 1.44 0.0 0.0
    vertex 1.44 0.0 14.0
  endloop
endfacet
facet normal -0.9951847266721969 -0.09801714032956058 -0.0
  outer loop
    vertex 1.44 0.0 0.0
    vertex 1.4123308037806517 0.28093006370322465 14.0
    vertex 1.4123308037806517 0.28093006370322465 0.0
  endloop
endfacet
endsolid 14mmHexPil
