solid 6mmROD
facet normal 3.3556059955424815e-32 6.974866747877561e-31 1.0
  outer loop
    vertex -2.3635386072293 -0.41675562640062885 6.0
    vertex -2.3635386072292985 0.41675562640063574 6.0
    vertex -2.4 3.491357542715815e-15 6.0
  endloop
endfacet
facet normal 3.3556059955424815e-32 6.974866747877561e-31 1.0
  outer loop
    vertex -2.3635386072292985 0.41675562640063574 6.0
    vertex -2.3635386072293 -0.41675562640062885 6.0
    vertex -2.2552622898861814 -0.8208483439816008 6.0
  endloop
endfacet
facet normal 3.3556059955424815e-32 6.974866747877561e-31 1.0
  outer loop
    vertex -2.3635386072292985 0.41675562640063574 6.0
    vertex -2.2552622898861814 -0.8208483439816008 6.0
    vertex -2.255262289886179 0.8208483439816073 6.0
  endloop
endfacet
facet normal 3.3556059955424815e-32 6.974866747877561e-31 1.0
  outer loop
    vertex -2.255262289886179 0.8208483439816073 6.0
    vertex -2.2552622898861814 -0.8208483439816008 6.0
    vertex -2.078460969082655 -1.1999999999999957 6.0
  endloop
endfacet
facet normal 3.3556059955424815e-32 6.974866747877561e-31 1.0
  outer loop
    vertex -2.255262289886179 0.8208483439816073 6.0
    vertex -2.078460969082655 -1.1999999999999957 6.0
    vertex -2.0784609690826517 1.2000000000000015 6.0
  endloop
endfacet
facet normal 3.3556059955424815e-32 6.974866747877561e-31 1.0
  outer loop
    vertex -2.0784609690826517 1.2000000000000015 6.0
    vertex -2.078460969082655 -1.1999999999999957 6.0
    vertex -1.8385066634855507 -1.54269026324769 6.0
  endloop
endfacet
facet normal 3.3556059955424815e-32 6.974866747877561e-31 1.0
  outer loop
    vertex -2.0784609690826517 1.2000000000000015 6.0
    vertex -1.8385066634855507 -1.54269026324769 6.0
    vertex -1.8385066634855465 1.5426902632476953 6.0
  endloop
endfacet
facet normal 3.3556059955424815e-32 6.974866747877561e-31 1.0
  outer loop
    vertex -1.8385066634855465 1.5426902632476953 6.0
    vertex -1.8385066634855507 -1.54269026324769 6.0
    vertex -1.7999999999999996 2.618518157036861e-15 6.0
  endloop
endfacet
facet normal 3.3556059955424815e-32 6.974866747877561e-31 1.0
  outer loop
    vertex -1.7999999999999996 2.618518157036861e-15 6.0
    vertex -1.8385066634855507 -1.54269026324769 6.0
    vertex -1.7726539554219745 -0.3125667198004716 6.0
  endloop
endfacet
facet normal 3.3556059955424815e-32 6.974866747877561e-31 1.0
  outer loop
    vertex -1.7726539554219745 -0.3125667198004716 6.0
    vertex -1.8385066634855507 -1.54269026324769 6.0
    vertex -1.542690263247698 -1.838506663485544 6.0
  endloop
endfacet
facet normal 3.3556059955424815e-32 6.974866747877561e-31 1.0
  outer loop
    vertex -1.7726539554219745 -0.3125667198004716 6.0
    vertex -1.542690263247698 -1.838506663485544 6.0
    vertex -1.6914467174146355 -0.6156362579862004 6.0
  endloop
endfacet
facet normal 3.3556059955424815e-32 6.974866747877561e-31 1.0
  outer loop
    vertex -1.6914467174146355 -0.6156362579862004 6.0
    vertex -1.542690263247698 -1.838506663485544 6.0
    vertex -1.558845726811991 -0.8999999999999966 6.0
  endloop
endfacet
facet normal 3.3556059955424815e-32 6.974866747877561e-31 1.0
  outer loop
    vertex -1.558845726811991 -0.8999999999999966 6.0
    vertex -1.542690263247698 -1.838506663485544 6.0
    vertex -1.3788799976141626 -1.1570176974357673 6.0
  endloop
endfacet
facet normal 3.3556059955424815e-32 6.974866747877561e-31 1.0
  outer loop
    vertex -1.3788799976141626 -1.1570176974357673 6.0
    vertex -1.542690263247698 -1.838506663485544 6.0
    vertex -1.2000000000000046 -2.07846096908265 6.0
  endloop
endfacet
facet normal 3.3556059955424815e-32 6.974866747877561e-31 1.0
  outer loop
    vertex -1.3788799976141626 -1.1570176974357673 6.0
    vertex -1.2000000000000046 -2.07846096908265 6.0
    vertex -1.1570176974357733 -1.3788799976141577 6.0
  endloop
endfacet
facet normal 3.3556059955424815e-32 6.974866747877561e-31 1.0
  outer loop
    vertex -1.1570176974357733 -1.3788799976141577 6.0
    vertex -1.2000000000000046 -2.07846096908265 6.0
    vertex -0.8208483439816103 -2.255262289886178 6.0
  endloop
endfacet
facet normal 3.3556059955424815e-32 6.974866747877561e-31 1.0
  outer loop
    vertex -1.1570176974357733 -1.3788799976141577 6.0
    vertex -0.8208483439816103 -2.255262289886178 6.0
    vertex -0.9000000000000032 -1.558845726811987 6.0
  endloop
endfacet
facet normal 3.3556059955424815e-32 6.974866747877561e-31 1.0
  outer loop
    vertex -0.9000000000000032 -1.558845726811987 6.0
    vertex -0.8208483439816103 -2.255262289886178 6.0
    vertex -0.6156362579862076 -1.691446717414633 6.0
  endloop
endfacet
facet normal 3.3556059955424815e-32 6.974866747877561e-31 1.0
  outer loop
    vertex -0.6156362579862076 -1.691446717414633 6.0
    vertex -0.8208483439816103 -2.255262289886178 6.0
    vertex -0.41675562640063907 -2.363538607229298 6.0
  endloop
endfacet
facet normal 3.3556059955424815e-32 6.974866747877561e-31 1.0
  outer loop
    vertex -0.6156362579862076 -1.691446717414633 6.0
    vertex -0.41675562640063907 -2.363538607229298 6.0
    vertex -0.3125667198004793 -1.7726539554219731 6.0
  endloop
endfacet
facet normal 3.3556059955424815e-32 6.974866747877561e-31 1.0
  outer loop
    vertex -0.3125667198004793 -1.7726539554219731 6.0
    vertex -0.41675562640063907 -2.363538607229298 6.0
    vertex -6.835757469533949e-15 -2.4 6.0
  endloop
endfacet
facet normal 3.3556059955424815e-32 6.974866747877561e-31 1.0
  outer loop
    vertex -0.3125667198004793 -1.7726539554219731 6.0
    vertex -6.835757469533949e-15 -2.4 6.0
    vertex -5.12681810215046e-15 -1.7999999999999996 6.0
  endloop
endfacet
facet normal 3.3556059955424815e-32 6.974866747877561e-31 1.0
  outer loop
    vertex -5.12681810215046e-15 -1.7999999999999996 6.0
    vertex -6.835757469533949e-15 -2.4 6.0
    vertex 0.4167556264006256 -2.3635386072293003 6.0
  endloop
endfacet
facet normal 3.3556059955424815e-32 6.974866747877561e-31 1.0
  outer loop
    vertex -5.12681810215046e-15 -1.7999999999999996 6.0
    vertex 0.4167556264006256 -2.3635386072293003 6.0
    vertex 0.31256671980046913 -1.772653955421975 6.0
  endloop
endfacet
facet normal 3.3556059955424815e-32 6.974866747877561e-31 1.0
  outer loop
    vertex 0.31256671980046913 -1.772653955421975 6.0
    vertex 0.4167556264006256 -2.3635386072293003 6.0
    vertex 0.6156362579861981 -1.6914467174146366 6.0
  endloop
endfacet
facet normal 3.3556059955424815e-32 6.974866747877561e-31 1.0
  outer loop
    vertex 0.6156362579861981 -1.6914467174146366 6.0
    vertex 0.4167556264006256 -2.3635386072293003 6.0
    vertex 0.8208483439815976 -2.2552622898861827 6.0
  endloop
endfacet
facet normal 3.3556059955424815e-32 6.974866747877561e-31 1.0
  outer loop
    vertex 0.6156362579861981 -1.6914467174146366 6.0
    vertex 0.8208483439815976 -2.2552622898861827 6.0
    vertex 0.8999999999999942 -1.5588457268119922 6.0
  endloop
endfacet
facet normal 3.3556059955424815e-32 6.974866747877561e-31 1.0
  outer loop
    vertex 0.8999999999999942 -1.5588457268119922 6.0
    vertex 0.8208483439815976 -2.2552622898861827 6.0
    vertex 1.1999999999999924 -2.078460969082657 6.0
  endloop
endfacet
facet normal 3.3556059955424815e-32 6.974866747877561e-31 1.0
  outer loop
    vertex 0.8999999999999942 -1.5588457268119922 6.0
    vertex 1.1999999999999924 -2.078460969082657 6.0
    vertex 1.1570176974357653 -1.3788799976141644 6.0
  endloop
endfacet
facet normal 3.3556059955424815e-32 6.974866747877561e-31 1.0
  outer loop
    vertex 1.1570176974357653 -1.3788799976141644 6.0
    vertex 1.1999999999999924 -2.078460969082657 6.0
    vertex 1.3788799976141557 -1.1570176974357758 6.0
  endloop
endfacet
facet normal 3.3556059955424815e-32 6.974866747877561e-31 1.0
  outer loop
    vertex 1.3788799976141557 -1.1570176974357758 6.0
    vertex 1.1999999999999924 -2.078460969082657 6.0
    vertex 1.5426902632476873 -1.838506663485553 6.0
  endloop
endfacet
facet normal 3.3556059955424815e-32 6.974866747877561e-31 1.0
  outer loop
    vertex 1.3788799976141557 -1.1570176974357758 6.0
    vertex 1.5426902632476873 -1.838506663485553 6.0
    vertex 1.5588457268119855 -0.9000000000000061 6.0
  endloop
endfacet
facet normal 3.3556059955424815e-32 6.974866747877561e-31 1.0
  outer loop
    vertex 1.5588457268119855 -0.9000000000000061 6.0
    vertex 1.5426902632476873 -1.838506663485553 6.0
    vertex 1.8385066634855411 -1.5426902632477013 6.0
  endloop
endfacet
facet normal 3.3556059955424815e-32 6.974866747877561e-31 1.0
  outer loop
    vertex 1.5588457268119855 -0.9000000000000061 6.0
    vertex 1.8385066634855411 -1.5426902632477013 6.0
    vertex 1.6914467174146322 -0.6156362579862107 6.0
  endloop
endfacet
facet normal 3.3556059955424815e-32 6.974866747877561e-31 1.0
  outer loop
    vertex 1.6914467174146322 -0.6156362579862107 6.0
    vertex 1.8385066634855411 -1.5426902632477013 6.0
    vertex 1.7726539554219725 -0.3125667198004825 6.0
  endloop
endfacet
facet normal 3.3556059955424815e-32 6.974866747877561e-31 1.0
  outer loop
    vertex 1.7726539554219725 -0.3125667198004825 6.0
    vertex 1.8385066634855411 -1.5426902632477013 6.0
    vertex 1.7999999999999996 0.0 6.0
  endloop
endfacet
facet normal 3.3556059955424815e-32 6.974866747877561e-31 1.0
  outer loop
    vertex -1.8385066634855465 1.5426902632476953 6.0
    vertex -1.7726539554219736 0.31256671980047673 6.0
    vertex -1.5426902632476933 1.8385066634855478 6.0
  endloop
endfacet
facet normal 3.3556059955424815e-32 6.974866747877561e-31 1.0
  outer loop
    vertex -1.7726539554219736 0.31256671980047673 6.0
    vertex -1.8385066634855465 1.5426902632476953 6.0
    vertex -1.7999999999999996 2.618518157036861e-15 6.0
  endloop
endfacet
facet normal 3.3556059955424815e-32 6.974866747877561e-31 1.0
  outer loop
    vertex -1.5426902632476933 1.8385066634855478 6.0
    vertex -1.7726539554219736 0.31256671980047673 6.0
    vertex -1.691446717414634 0.6156362579862054 6.0
  endloop
endfacet
facet normal 3.3556059955424815e-32 6.974866747877561e-31 1.0
  outer loop
    vertex -1.5426902632476933 1.8385066634855478 6.0
    vertex -1.691446717414634 0.6156362579862054 6.0
    vertex -1.5588457268119886 0.900000000000001 6.0
  endloop
endfacet
facet normal 3.3556059955424815e-32 6.974866747877561e-31 1.0
  outer loop
    vertex -1.5426902632476933 1.8385066634855478 6.0
    vertex -1.5588457268119886 0.900000000000001 6.0
    vertex -1.3788799976141595 1.1570176974357713 6.0
  endloop
endfacet
facet normal 3.3556059955424815e-32 6.974866747877561e-31 1.0
  outer loop
    vertex -1.5426902632476933 1.8385066634855478 6.0
    vertex -1.3788799976141595 1.1570176974357713 6.0
    vertex -1.1999999999999993 2.078460969082653 6.0
  endloop
endfacet
facet normal 3.3556059955424815e-32 6.974866747877561e-31 1.0
  outer loop
    vertex -1.1999999999999993 2.078460969082653 6.0
    vertex -1.3788799976141595 1.1570176974357713 6.0
    vertex -1.1570176974357698 1.3788799976141608 6.0
  endloop
endfacet
facet normal 3.3556059955424815e-32 6.974866747877561e-31 1.0
  outer loop
    vertex -1.1999999999999993 2.078460969082653 6.0
    vertex -1.1570176974357698 1.3788799976141608 6.0
    vertex -0.8208483439816048 2.25526228988618 6.0
  endloop
endfacet
facet normal 3.3556059955424815e-32 6.974866747877561e-31 1.0
  outer loop
    vertex -0.8208483439816048 2.25526228988618 6.0
    vertex -1.1570176974357698 1.3788799976141608 6.0
    vertex -0.8999999999999994 1.5588457268119895 6.0
  endloop
endfacet
facet normal 3.3556059955424815e-32 6.974866747877561e-31 1.0
  outer loop
    vertex -0.8208483439816048 2.25526228988618 6.0
    vertex -0.8999999999999994 1.5588457268119895 6.0
    vertex -0.6156362579862035 1.6914467174146348 6.0
  endloop
endfacet
facet normal 3.3556059955424815e-32 6.974866747877561e-31 1.0
  outer loop
    vertex -0.8208483439816048 2.25526228988618 6.0
    vertex -0.6156362579862035 1.6914467174146348 6.0
    vertex -0.41675562640063274 2.363538607229299 6.0
  endloop
endfacet
facet normal 3.3556059955424815e-32 6.974866747877561e-31 1.0
  outer loop
    vertex -0.41675562640063274 2.363538607229299 6.0
    vertex -0.6156362579862035 1.6914467174146348 6.0
    vertex -0.31256671980047446 1.7726539554219738 6.0
  endloop
endfacet
facet normal 3.3556059955424815e-32 6.974866747877561e-31 1.0
  outer loop
    vertex -0.41675562640063274 2.363538607229299 6.0
    vertex -0.31256671980047446 1.7726539554219738 6.0
    vertex 1.4695761589768238e-16 2.4 6.0
  endloop
endfacet
facet normal 3.3556059955424815e-32 6.974866747877561e-31 1.0
  outer loop
    vertex 1.4695761589768238e-16 2.4 6.0
    vertex -0.31256671980047446 1.7726539554219738 6.0
    vertex 1.1021821192326177e-16 1.7999999999999996 6.0
  endloop
endfacet
facet normal 3.3556059955424815e-32 6.974866747877561e-31 1.0
  outer loop
    vertex 1.4695761589768238e-16 2.4 6.0
    vertex 1.1021821192326177e-16 1.7999999999999996 6.0
    vertex 0.3125667198004746 1.7726539554219738 6.0
  endloop
endfacet
facet normal 3.3556059955424815e-32 6.974866747877561e-31 1.0
  outer loop
    vertex 1.4695761589768238e-16 2.4 6.0
    vertex 0.3125667198004746 1.7726539554219738 6.0
    vertex 0.416755626400633 2.363538607229299 6.0
  endloop
endfacet
facet normal 3.3556059955424815e-32 6.974866747877561e-31 1.0
  outer loop
    vertex 0.416755626400633 2.363538607229299 6.0
    vertex 0.3125667198004746 1.7726539554219738 6.0
    vertex 0.6156362579862037 1.6914467174146346 6.0
  endloop
endfacet
facet normal 3.3556059955424815e-32 6.974866747877561e-31 1.0
  outer loop
    vertex 0.416755626400633 2.363538607229299 6.0
    vertex 0.6156362579862037 1.6914467174146346 6.0
    vertex 0.8208483439816052 2.2552622898861796 6.0
  endloop
endfacet
facet normal 3.3556059955424815e-32 6.974866747877561e-31 1.0
  outer loop
    vertex 0.8208483439816052 2.2552622898861796 6.0
    vertex 0.6156362579862037 1.6914467174146346 6.0
    vertex 0.8999999999999999 1.558845726811989 6.0
  endloop
endfacet
facet normal 3.3556059955424815e-32 6.974866747877561e-31 1.0
  outer loop
    vertex 0.8208483439816052 2.2552622898861796 6.0
    vertex 0.8999999999999999 1.558845726811989 6.0
    vertex 1.2000000000000002 2.078460969082652 6.0
  endloop
endfacet
facet normal 3.3556059955424815e-32 6.974866747877561e-31 1.0
  outer loop
    vertex 1.2000000000000002 2.078460969082652 6.0
    vertex 0.8999999999999999 1.558845726811989 6.0
    vertex 1.1570176974357707 1.37887999761416 6.0
  endloop
endfacet
facet normal 3.3556059955424815e-32 6.974866747877561e-31 1.0
  outer loop
    vertex 1.2000000000000002 2.078460969082652 6.0
    vertex 1.1570176974357707 1.37887999761416 6.0
    vertex 1.3788799976141601 1.1570176974357704 6.0
  endloop
endfacet
facet normal 3.3556059955424815e-32 6.974866747877561e-31 1.0
  outer loop
    vertex 1.2000000000000002 2.078460969082652 6.0
    vertex 1.3788799976141601 1.1570176974357704 6.0
    vertex 1.5426902632476942 1.8385066634855471 6.0
  endloop
endfacet
facet normal 3.3556059955424815e-32 6.974866747877561e-31 1.0
  outer loop
    vertex 1.5426902632476942 1.8385066634855471 6.0
    vertex 1.3788799976141601 1.1570176974357704 6.0
    vertex 1.5588457268119893 0.8999999999999996 6.0
  endloop
endfacet
facet normal 3.3556059955424815e-32 6.974866747877561e-31 1.0
  outer loop
    vertex 1.5426902632476942 1.8385066634855471 6.0
    vertex 1.5588457268119893 0.8999999999999996 6.0
    vertex 1.8385066634855476 1.5426902632476942 6.0
  endloop
endfacet
facet normal 3.3556059955424815e-32 6.974866747877561e-31 1.0
  outer loop
    vertex 1.8385066634855476 1.5426902632476942 6.0
    vertex 1.5588457268119893 0.8999999999999996 6.0
    vertex 1.6914467174146348 0.6156362579862035 6.0
  endloop
endfacet
facet normal 3.3556059955424815e-32 6.974866747877561e-31 1.0
  outer loop
    vertex 1.8385066634855476 1.5426902632476942 6.0
    vertex 1.6914467174146348 0.6156362579862035 6.0
    vertex 1.7726539554219738 0.3125667198004745 6.0
  endloop
endfacet
facet normal 3.3556059955424815e-32 6.974866747877561e-31 1.0
  outer loop
    vertex 1.8385066634855476 1.5426902632476942 6.0
    vertex 1.7726539554219738 0.3125667198004745 6.0
    vertex 1.7999999999999996 0.0 6.0
  endloop
endfacet
facet normal 3.3556059955424815e-32 6.974866747877561e-31 1.0
  outer loop
    vertex 1.8385066634855476 1.5426902632476942 6.0
    vertex 1.7999999999999996 0.0 6.0
    vertex 1.8385066634855411 -1.5426902632477013 6.0
  endloop
endfacet
facet normal 3.3556059955424815e-32 6.974866747877561e-31 1.0
  outer loop
    vertex 1.8385066634855476 1.5426902632476942 6.0
    vertex 1.8385066634855411 -1.5426902632477013 6.0
    vertex 2.0784609690826477 -1.2000000000000084 6.0
  endloop
endfacet
facet normal 3.3556059955424815e-32 6.974866747877561e-31 1.0
  outer loop
    vertex 1.8385066634855476 1.5426902632476942 6.0
    vertex 2.0784609690826477 -1.2000000000000084 6.0
    vertex 2.0784609690826525 1.1999999999999997 6.0
  endloop
endfacet
facet normal 3.3556059955424815e-32 6.974866747877561e-31 1.0
  outer loop
    vertex 2.0784609690826525 1.1999999999999997 6.0
    vertex 2.0784609690826477 -1.2000000000000084 6.0
    vertex 2.255262289886176 -0.8208483439816145 6.0
  endloop
endfacet
facet normal 3.3556059955424815e-32 6.974866747877561e-31 1.0
  outer loop
    vertex 2.0784609690826525 1.1999999999999997 6.0
    vertex 2.255262289886176 -0.8208483439816145 6.0
    vertex 2.25526228988618 0.8208483439816048 6.0
  endloop
endfacet
facet normal 3.3556059955424815e-32 6.974866747877561e-31 1.0
  outer loop
    vertex 2.25526228988618 0.8208483439816048 6.0
    vertex 2.255262289886176 -0.8208483439816145 6.0
    vertex 2.363538607229297 -0.4167556264006434 6.0
  endloop
endfacet
facet normal 3.3556059955424815e-32 6.974866747877561e-31 1.0
  outer loop
    vertex 2.25526228988618 0.8208483439816048 6.0
    vertex 2.363538607229297 -0.4167556264006434 6.0
    vertex 2.363538607229299 0.41675562640063274 6.0
  endloop
endfacet
facet normal 3.3556059955424815e-32 6.974866747877561e-31 1.0
  outer loop
    vertex 2.363538607229299 0.41675562640063274 6.0
    vertex 2.363538607229297 -0.4167556264006434 6.0
    vertex 2.4 0.0 6.0
  endloop
endfacet
facet normal 0.9961946980917454 -0.08715574274766029 0.0
  outer loop
    vertex 2.4 0.0 0.0
    vertex 2.363538607229297 -0.4167556264006434 6.0
    vertex 2.363538607229297 -0.4167556264006434 0.0
  endloop
endfacet
facet normal 0.9961946980917454 -0.08715574274766029 0.0
  outer loop
    vertex 2.363538607229297 -0.4167556264006434 6.0
    vertex 2.4 0.0 0.0
    vertex 2.4 0.0 6.0
  endloop
endfacet
facet normal 0.9659258262890671 -0.25881904510252574 0.0
  outer loop
    vertex 2.363538607229297 -0.4167556264006434 0.0
    vertex 2.255262289886176 -0.8208483439816145 6.0
    vertex 2.255262289886176 -0.8208483439816145 0.0
  endloop
endfacet
facet normal 0.9659258262890671 -0.25881904510252574 0.0
  outer loop
    vertex 2.255262289886176 -0.8208483439816145 6.0
    vertex 2.363538607229297 -0.4167556264006434 0.0
    vertex 2.363538607229297 -0.4167556264006434 6.0
  endloop
endfacet
facet normal 0.9063077870366485 -0.42261826174070266 0.0
  outer loop
    vertex 2.255262289886176 -0.8208483439816145 0.0
    vertex 2.0784609690826477 -1.2000000000000084 6.0
    vertex 2.0784609690826477 -1.2000000000000084 0.0
  endloop
endfacet
facet normal 0.9063077870366485 -0.42261826174070266 0.0
  outer loop
    vertex 2.0784609690826477 -1.2000000000000084 6.0
    vertex 2.255262289886176 -0.8208483439816145 0.0
    vertex 2.255262289886176 -0.8208483439816145 6.0
  endloop
endfacet
facet normal 0.8191520442889895 -0.5735764363510494 0.0
  outer loop
    vertex 2.0784609690826477 -1.2000000000000084 0.0
    vertex 1.8385066634855411 -1.5426902632477013 6.0
    vertex 1.8385066634855411 -1.5426902632477013 0.0
  endloop
endfacet
facet normal 0.8191520442889895 -0.5735764363510494 0.0
  outer loop
    vertex 1.8385066634855411 -1.5426902632477013 6.0
    vertex 2.0784609690826477 -1.2000000000000084 0.0
    vertex 2.0784609690826477 -1.2000000000000084 6.0
  endloop
endfacet
facet normal 0.7071067811865448 -0.7071067811865503 0.0
  outer loop
    vertex 1.8385066634855411 -1.5426902632477013 6.0
    vertex 1.5426902632476873 -1.838506663485553 0.0
    vertex 1.8385066634855411 -1.5426902632477013 0.0
  endloop
endfacet
facet normal 0.7071067811865448 -0.7071067811865503 0.0
  outer loop
    vertex 1.5426902632476873 -1.838506663485553 0.0
    vertex 1.8385066634855411 -1.5426902632477013 6.0
    vertex 1.5426902632476873 -1.838506663485553 6.0
  endloop
endfacet
facet normal 0.5735764363510433 -0.8191520442889938 0.0
  outer loop
    vertex 1.5426902632476873 -1.838506663485553 6.0
    vertex 1.1999999999999924 -2.078460969082657 0.0
    vertex 1.5426902632476873 -1.838506663485553 0.0
  endloop
endfacet
facet normal 0.5735764363510433 -0.8191520442889938 0.0
  outer loop
    vertex 1.1999999999999924 -2.078460969082657 0.0
    vertex 1.5426902632476873 -1.838506663485553 6.0
    vertex 1.1999999999999924 -2.078460969082657 6.0
  endloop
endfacet
facet normal 0.4226182617406969 -0.9063077870366512 0.0
  outer loop
    vertex 1.1999999999999924 -2.078460969082657 6.0
    vertex 0.8208483439815976 -2.2552622898861827 0.0
    vertex 1.1999999999999924 -2.078460969082657 0.0
  endloop
endfacet
facet normal 0.4226182617406969 -0.9063077870366512 0.0
  outer loop
    vertex 0.8208483439815976 -2.2552622898861827 0.0
    vertex 1.1999999999999924 -2.078460969082657 6.0
    vertex 0.8208483439815976 -2.2552622898861827 6.0
  endloop
endfacet
facet normal 0.2588190451025173 -0.9659258262890693 0.0
  outer loop
    vertex 0.8208483439815976 -2.2552622898861827 6.0
    vertex 0.4167556264006256 -2.3635386072293003 0.0
    vertex 0.8208483439815976 -2.2552622898861827 0.0
  endloop
endfacet
facet normal 0.2588190451025173 -0.9659258262890693 0.0
  outer loop
    vertex 0.4167556264006256 -2.3635386072293003 0.0
    vertex 0.8208483439815976 -2.2552622898861827 6.0
    vertex 0.4167556264006256 -2.3635386072293003 6.0
  endloop
endfacet
facet normal 0.08715574274765503 -0.9961946980917458 0.0
  outer loop
    vertex 0.4167556264006256 -2.3635386072293003 6.0
    vertex -6.835757469533949e-15 -2.4 0.0
    vertex 0.4167556264006256 -2.3635386072293003 0.0
  endloop
endfacet
facet normal 0.08715574274765503 -0.9961946980917458 0.0
  outer loop
    vertex -6.835757469533949e-15 -2.4 0.0
    vertex 0.4167556264006256 -2.3635386072293003 6.0
    vertex -6.835757469533949e-15 -2.4 6.0
  endloop
endfacet
facet normal -0.08715574274766094 -0.9961946980917454 -0.0
  outer loop
    vertex -6.835757469533949e-15 -2.4 6.0
    vertex -0.41675562640063907 -2.363538607229298 0.0
    vertex -6.835757469533949e-15 -2.4 0.0
  endloop
endfacet
facet normal -0.08715574274766094 -0.9961946980917454 -0.0
  outer loop
    vertex -0.41675562640063907 -2.363538607229298 0.0
    vertex -6.835757469533949e-15 -2.4 6.0
    vertex -0.41675562640063907 -2.363538607229298 6.0
  endloop
endfacet
facet normal -0.2588190451025233 -0.9659258262890676 -0.0
  outer loop
    vertex -0.41675562640063907 -2.363538607229298 6.0
    vertex -0.8208483439816103 -2.255262289886178 0.0
    vertex -0.41675562640063907 -2.363538607229298 0.0
  endloop
endfacet
facet normal -0.2588190451025233 -0.9659258262890676 -0.0
  outer loop
    vertex -0.8208483439816103 -2.255262289886178 0.0
    vertex -0.41675562640063907 -2.363538607229298 6.0
    vertex -0.8208483439816103 -2.255262289886178 6.0
  endloop
endfacet
facet normal -0.4226182617407015 -0.9063077870366489 -0.0
  outer loop
    vertex -0.8208483439816103 -2.255262289886178 6.0
    vertex -1.2000000000000046 -2.07846096908265 0.0
    vertex -0.8208483439816103 -2.255262289886178 0.0
  endloop
endfacet
facet normal -0.4226182617407015 -0.9063077870366489 -0.0
  outer loop
    vertex -1.2000000000000046 -2.07846096908265 0.0
    vertex -0.8208483439816103 -2.255262289886178 6.0
    vertex -1.2000000000000046 -2.07846096908265 6.0
  endloop
endfacet
facet normal -0.5735764363510479 -0.8191520442889907 -0.0
  outer loop
    vertex -1.2000000000000046 -2.07846096908265 6.0
    vertex -1.542690263247698 -1.838506663485544 0.0
    vertex -1.2000000000000046 -2.07846096908265 0.0
  endloop
endfacet
facet normal -0.5735764363510479 -0.8191520442889907 -0.0
  outer loop
    vertex -1.542690263247698 -1.838506663485544 0.0
    vertex -1.2000000000000046 -2.07846096908265 6.0
    vertex -1.542690263247698 -1.838506663485544 6.0
  endloop
endfacet
facet normal -0.707106781186549 -0.707106781186546 -0.0
  outer loop
    vertex -1.8385066634855507 -1.54269026324769 6.0
    vertex -1.542690263247698 -1.838506663485544 0.0
    vertex -1.542690263247698 -1.838506663485544 6.0
  endloop
endfacet
facet normal -0.707106781186549 -0.707106781186546 -0.0
  outer loop
    vertex -1.542690263247698 -1.838506663485544 0.0
    vertex -1.8385066634855507 -1.54269026324769 6.0
    vertex -1.8385066634855507 -1.54269026324769 0.0
  endloop
endfacet
facet normal -0.819152044288993 -0.5735764363510445 -0.0
  outer loop
    vertex -2.078460969082655 -1.1999999999999957 6.0
    vertex -1.8385066634855507 -1.54269026324769 0.0
    vertex -1.8385066634855507 -1.54269026324769 6.0
  endloop
endfacet
facet normal -0.819152044288993 -0.5735764363510445 -0.0
  outer loop
    vertex -1.8385066634855507 -1.54269026324769 0.0
    vertex -2.078460969082655 -1.1999999999999957 6.0
    vertex -2.078460969082655 -1.1999999999999957 0.0
  endloop
endfacet
facet normal -0.9063077870366508 -0.42261826174069755 -0.0
  outer loop
    vertex -2.2552622898861814 -0.8208483439816008 6.0
    vertex -2.078460969082655 -1.1999999999999957 0.0
    vertex -2.078460969082655 -1.1999999999999957 6.0
  endloop
endfacet
facet normal -0.9063077870366508 -0.42261826174069755 -0.0
  outer loop
    vertex -2.078460969082655 -1.1999999999999957 0.0
    vertex -2.2552622898861814 -0.8208483439816008 6.0
    vertex -2.2552622898861814 -0.8208483439816008 0.0
  endloop
endfacet
facet normal -0.9659258262890688 -0.2588190451025189 -0.0
  outer loop
    vertex -2.3635386072293 -0.41675562640062885 6.0
    vertex -2.2552622898861814 -0.8208483439816008 0.0
    vertex -2.2552622898861814 -0.8208483439816008 6.0
  endloop
endfacet
facet normal -0.9659258262890688 -0.2588190451025189 -0.0
  outer loop
    vertex -2.2552622898861814 -0.8208483439816008 0.0
    vertex -2.3635386072293 -0.41675562640062885 6.0
    vertex -2.3635386072293 -0.41675562640062885 0.0
  endloop
endfacet
facet normal -0.9961946980917457 -0.08715574274765672 -0.0
  outer loop
    vertex -2.4 3.491357542715815e-15 6.0
    vertex -2.3635386072293 -0.41675562640062885 0.0
    vertex -2.3635386072293 -0.41675562640062885 6.0
  endloop
endfacet
facet normal -0.9961946980917457 -0.08715574274765672 -0.0
  outer loop
    vertex -2.3635386072293 -0.41675562640062885 0.0
    vertex -2.4 3.491357542715815e-15 6.0
    vertex -2.4 3.491357542715815e-15 0.0
  endloop
endfacet
facet normal -0.9961946980917454 0.08715574274766011 0.0
  outer loop
    vertex -2.3635386072292985 0.41675562640063574 6.0
    vertex -2.4 3.491357542715815e-15 0.0
    vertex -2.4 3.491357542715815e-15 6.0
  endloop
endfacet
facet normal -0.9961946980917454 0.08715574274766011 0.0
  outer loop
    vertex -2.4 3.491357542715815e-15 0.0
    vertex -2.3635386072292985 0.41675562640063574 6.0
    vertex -2.3635386072292985 0.41675562640063574 0.0
  endloop
endfacet
facet normal -0.9659258262890681 0.25881904510252146 0.0
  outer loop
    vertex -2.255262289886179 0.8208483439816073 6.0
    vertex -2.3635386072292985 0.41675562640063574 0.0
    vertex -2.3635386072292985 0.41675562640063574 6.0
  endloop
endfacet
facet normal -0.9659258262890681 0.25881904510252146 0.0
  outer loop
    vertex -2.3635386072292985 0.41675562640063574 0.0
    vertex -2.255262289886179 0.8208483439816073 6.0
    vertex -2.255262289886179 0.8208483439816073 0.0
  endloop
endfacet
facet normal -0.9063077870366495 0.4226182617407003 0.0
  outer loop
    vertex -2.0784609690826517 1.2000000000000015 6.0
    vertex -2.255262289886179 0.8208483439816073 0.0
    vertex -2.255262289886179 0.8208483439816073 6.0
  endloop
endfacet
facet normal -0.9063077870366495 0.4226182617407003 0.0
  outer loop
    vertex -2.255262289886179 0.8208483439816073 0.0
    vertex -2.0784609690826517 1.2000000000000015 6.0
    vertex -2.0784609690826517 1.2000000000000015 0.0
  endloop
endfacet
facet normal -0.8191520442889917 0.5735764363510462 0.0
  outer loop
    vertex -1.8385066634855465 1.5426902632476953 6.0
    vertex -2.0784609690826517 1.2000000000000015 0.0
    vertex -2.0784609690826517 1.2000000000000015 6.0
  endloop
endfacet
facet normal -0.8191520442889917 0.5735764363510462 0.0
  outer loop
    vertex -2.0784609690826517 1.2000000000000015 0.0
    vertex -1.8385066634855465 1.5426902632476953 6.0
    vertex -1.8385066634855465 1.5426902632476953 0.0
  endloop
endfacet
facet normal -0.7071067811865467 0.7071067811865483 0.0
  outer loop
    vertex -1.8385066634855465 1.5426902632476953 6.0
    vertex -1.5426902632476933 1.8385066634855478 0.0
    vertex -1.8385066634855465 1.5426902632476953 0.0
  endloop
endfacet
facet normal -0.7071067811865467 0.7071067811865483 0.0
  outer loop
    vertex -1.5426902632476933 1.8385066634855478 0.0
    vertex -1.8385066634855465 1.5426902632476953 6.0
    vertex -1.5426902632476933 1.8385066634855478 6.0
  endloop
endfacet
facet normal -0.5735764363510462 0.8191520442889917 0.0
  outer loop
    vertex -1.5426902632476933 1.8385066634855478 6.0
    vertex -1.1999999999999993 2.078460969082653 0.0
    vertex -1.5426902632476933 1.8385066634855478 0.0
  endloop
endfacet
facet normal -0.5735764363510462 0.8191520442889917 0.0
  outer loop
    vertex -1.1999999999999993 2.078460969082653 0.0
    vertex -1.5426902632476933 1.8385066634855478 6.0
    vertex -1.1999999999999993 2.078460969082653 6.0
  endloop
endfacet
facet normal -0.42261826174069933 0.9063077870366502 0.0
  outer loop
    vertex -1.1999999999999993 2.078460969082653 6.0
    vertex -0.8208483439816048 2.25526228988618 0.0
    vertex -1.1999999999999993 2.078460969082653 0.0
  endloop
endfacet
facet normal -0.42261826174069933 0.9063077870366502 0.0
  outer loop
    vertex -0.8208483439816048 2.25526228988618 0.0
    vertex -1.1999999999999993 2.078460969082653 6.0
    vertex -0.8208483439816048 2.25526228988618 6.0
  endloop
endfacet
facet normal -0.25881904510252035 0.9659258262890683 0.0
  outer loop
    vertex -0.8208483439816048 2.25526228988618 6.0
    vertex -0.41675562640063274 2.363538607229299 0.0
    vertex -0.8208483439816048 2.25526228988618 0.0
  endloop
endfacet
facet normal -0.25881904510252035 0.9659258262890683 0.0
  outer loop
    vertex -0.41675562640063274 2.363538607229299 0.0
    vertex -0.8208483439816048 2.25526228988618 6.0
    vertex -0.41675562640063274 2.363538607229299 6.0
  endloop
endfacet
facet normal -0.08715574274765828 0.9961946980917455 0.0
  outer loop
    vertex -0.41675562640063274 2.363538607229299 6.0
    vertex 1.4695761589768238e-16 2.4 0.0
    vertex -0.41675562640063274 2.363538607229299 0.0
  endloop
endfacet
facet normal -0.08715574274765828 0.9961946980917455 0.0
  outer loop
    vertex 1.4695761589768238e-16 2.4 0.0
    vertex -0.41675562640063274 2.363538607229299 6.0
    vertex 1.4695761589768238e-16 2.4 6.0
  endloop
endfacet
facet normal 0.0871557427476583 0.9961946980917455 0.0
  outer loop
    vertex 1.4695761589768238e-16 2.4 6.0
    vertex 0.416755626400633 2.363538607229299 0.0
    vertex 1.4695761589768238e-16 2.4 0.0
  endloop
endfacet
facet normal 0.0871557427476583 0.9961946980917455 0.0
  outer loop
    vertex 0.416755626400633 2.363538607229299 0.0
    vertex 1.4695761589768238e-16 2.4 6.0
    vertex 0.416755626400633 2.363538607229299 6.0
  endloop
endfacet
facet normal 0.25881904510252113 0.9659258262890682 0.0
  outer loop
    vertex 0.416755626400633 2.363538607229299 6.0
    vertex 0.8208483439816052 2.2552622898861796 0.0
    vertex 0.416755626400633 2.363538607229299 0.0
  endloop
endfacet
facet normal 0.25881904510252113 0.9659258262890682 0.0
  outer loop
    vertex 0.8208483439816052 2.2552622898861796 0.0
    vertex 0.416755626400633 2.363538607229299 6.0
    vertex 0.8208483439816052 2.2552622898861796 6.0
  endloop
endfacet
facet normal 0.42261826174069944 0.9063077870366499 0.0
  outer loop
    vertex 0.8208483439816052 2.2552622898861796 6.0
    vertex 1.2000000000000002 2.078460969082652 0.0
    vertex 0.8208483439816052 2.2552622898861796 0.0
  endloop
endfacet
facet normal 0.42261826174069944 0.9063077870366499 0.0
  outer loop
    vertex 1.2000000000000002 2.078460969082652 0.0
    vertex 0.8208483439816052 2.2552622898861796 6.0
    vertex 1.2000000000000002 2.078460969082652 6.0
  endloop
endfacet
facet normal 0.5735764363510459 0.8191520442889918 0.0
  outer loop
    vertex 1.2000000000000002 2.078460969082652 6.0
    vertex 1.5426902632476942 1.8385066634855471 0.0
    vertex 1.2000000000000002 2.078460969082652 0.0
  endloop
endfacet
facet normal 0.5735764363510459 0.8191520442889918 0.0
  outer loop
    vertex 1.5426902632476942 1.8385066634855471 0.0
    vertex 1.2000000000000002 2.078460969082652 6.0
    vertex 1.5426902632476942 1.8385066634855471 6.0
  endloop
endfacet
facet normal 0.7071067811865474 0.7071067811865478 0.0
  outer loop
    vertex 1.5426902632476942 1.8385066634855471 6.0
    vertex 1.8385066634855476 1.5426902632476942 0.0
    vertex 1.5426902632476942 1.8385066634855471 0.0
  endloop
endfacet
facet normal 0.7071067811865474 0.7071067811865478 0.0
  outer loop
    vertex 1.8385066634855476 1.5426902632476942 0.0
    vertex 1.5426902632476942 1.8385066634855471 6.0
    vertex 1.8385066634855476 1.5426902632476942 6.0
  endloop
endfacet
facet normal 0.8191520442889921 0.5735764363510456 0.0
  outer loop
    vertex 1.8385066634855476 1.5426902632476942 0.0
    vertex 2.0784609690826525 1.1999999999999997 6.0
    vertex 2.0784609690826525 1.1999999999999997 0.0
  endloop
endfacet
facet normal 0.8191520442889921 0.5735764363510456 0.0
  outer loop
    vertex 2.0784609690826525 1.1999999999999997 6.0
    vertex 1.8385066634855476 1.5426902632476942 0.0
    vertex 1.8385066634855476 1.5426902632476942 6.0
  endloop
endfacet
facet normal 0.9063077870366498 0.4226182617406996 0.0
  outer loop
    vertex 2.0784609690826525 1.1999999999999997 0.0
    vertex 2.25526228988618 0.8208483439816048 6.0
    vertex 2.25526228988618 0.8208483439816048 0.0
  endloop
endfacet
facet normal 0.9063077870366498 0.4226182617406996 0.0
  outer loop
    vertex 2.25526228988618 0.8208483439816048 6.0
    vertex 2.0784609690826525 1.1999999999999997 0.0
    vertex 2.0784609690826525 1.1999999999999997 6.0
  endloop
endfacet
facet normal 0.9659258262890683 0.25881904510252035 0.0
  outer loop
    vertex 2.25526228988618 0.8208483439816048 0.0
    vertex 2.363538607229299 0.41675562640063274 6.0
    vertex 2.363538607229299 0.41675562640063274 0.0
  endloop
endfacet
facet normal 0.9659258262890683 0.25881904510252035 0.0
  outer loop
    vertex 2.363538607229299 0.41675562640063274 6.0
    vertex 2.25526228988618 0.8208483439816048 0.0
    vertex 2.25526228988618 0.8208483439816048 6.0
  endloop
endfacet
facet normal 0.9961946980917457 0.08715574274765833 0.0
  outer loop
    vertex 2.363538607229299 0.41675562640063274 0.0
    vertex 2.4 0.0 6.0
    vertex 2.4 0.0 0.0
  endloop
endfacet
facet normal 0.9961946980917457 0.08715574274765833 0.0
  outer loop
    vertex 2.4 0.0 6.0
    vertex 2.363538607229299 0.41675562640063274 0.0
    vertex 2.363538607229299 0.41675562640063274 6.0
  endloop
endfacet
facet normal -0.9961946980917455 -0.0871557427476589 3.438346527405552e-33
  outer loop
    vertex 1.7999999999999996 0.0 6.0
    vertex 1.7726539554219738 0.3125667198004745 3.877453913503359e-15
    vertex 1.7999999999999996 -4.857639155451959e-31 3.877453913503359e-15
  endloop
endfacet
facet normal -0.9961946980917455 -0.0871557427476589 3.438346527405552e-33
  outer loop
    vertex 1.7726539554219738 0.3125667198004745 3.877453913503359e-15
    vertex 1.7999999999999996 0.0 6.0
    vertex 1.7726539554219738 0.3125667198004745 6.0
  endloop
endfacet
facet normal -0.9659258262890688 -0.25881904510251946 1.814740232564788e-31
  outer loop
    vertex 1.6914467174146348 0.6156362579862035 6.0
    vertex 1.7726539554219738 0.3125667198004745 3.877453913503359e-15
    vertex 1.7726539554219738 0.3125667198004745 6.0
  endloop
endfacet
facet normal -0.9659258262890688 -0.25881904510251946 1.814740232564788e-31
  outer loop
    vertex 1.7726539554219738 0.3125667198004745 3.877453913503359e-15
    vertex 1.6914467174146348 0.6156362579862035 6.0
    vertex 1.6914467174146348 0.6156362579862035 3.877453913503359e-15
  endloop
endfacet
facet normal -0.9063077870366497 -0.4226182617407 1.848278463505109e-31
  outer loop
    vertex 1.5588457268119893 0.8999999999999996 6.0
    vertex 1.6914467174146348 0.6156362579862035 3.877453913503359e-15
    vertex 1.6914467174146348 0.6156362579862035 6.0
  endloop
endfacet
facet normal -0.9063077870366497 -0.4226182617407 1.848278463505109e-31
  outer loop
    vertex 1.6914467174146348 0.6156362579862035 3.877453913503359e-15
    vertex 1.5588457268119893 0.8999999999999996 6.0
    vertex 1.5588457268119893 0.8999999999999996 3.877453913503359e-15
  endloop
endfacet
facet normal -0.819152044288992 -0.5735764363510459 1.825657688605857e-31
  outer loop
    vertex 1.3788799976141601 1.1570176974357704 6.0
    vertex 1.5588457268119893 0.8999999999999996 3.877453913503359e-15
    vertex 1.5588457268119893 0.8999999999999996 6.0
  endloop
endfacet
facet normal -0.819152044288992 -0.5735764363510459 1.825657688605857e-31
  outer loop
    vertex 1.5588457268119893 0.8999999999999996 3.877453913503359e-15
    vertex 1.3788799976141601 1.1570176974357704 6.0
    vertex 1.3788799976141601 1.1570176974357704 3.877453913503359e-15
  endloop
endfacet
facet normal -0.7071067811865476 -0.7071067811865476 1.7475652286656824e-31
  outer loop
    vertex 1.1570176974357707 1.37887999761416 6.0
    vertex 1.3788799976141601 1.1570176974357704 3.877453913503359e-15
    vertex 1.3788799976141601 1.1570176974357704 6.0
  endloop
endfacet
facet normal -0.7071067811865476 -0.7071067811865476 1.7475652286656824e-31
  outer loop
    vertex 1.3788799976141601 1.1570176974357704 3.877453913503359e-15
    vertex 1.1570176974357707 1.37887999761416 6.0
    vertex 1.1570176974357707 1.37887999761416 3.877453913503359e-15
  endloop
endfacet
facet normal -0.5735764363510462 -0.8191520442889917 1.616373883563175e-31
  outer loop
    vertex 1.1570176974357707 1.37887999761416 6.0
    vertex 0.8999999999999999 1.558845726811989 3.877453913503359e-15
    vertex 1.1570176974357707 1.37887999761416 3.877453913503359e-15
  endloop
endfacet
facet normal -0.5735764363510462 -0.8191520442889917 1.616373883563175e-31
  outer loop
    vertex 0.8999999999999999 1.558845726811989 3.877453913503359e-15
    vertex 1.1570176974357707 1.37887999761416 6.0
    vertex 0.8999999999999999 1.558845726811989 6.0
  endloop
endfacet
facet normal -0.42261826174069944 -0.90630778703665 1.4360698359332516e-31
  outer loop
    vertex 0.8999999999999999 1.558845726811989 6.0
    vertex 0.6156362579862037 1.6914467174146346 3.877453913503359e-15
    vertex 0.8999999999999999 1.558845726811989 3.877453913503359e-15
  endloop
endfacet
facet normal -0.42261826174069944 -0.90630778703665 1.4360698359332516e-31
  outer loop
    vertex 0.6156362579862037 1.6914467174146346 3.877453913503359e-15
    vertex 0.8999999999999999 1.558845726811989 6.0
    vertex 0.6156362579862037 1.6914467174146346 6.0
  endloop
endfacet
facet normal -0.2588190451025204 -0.9659258262890685 1.2121315330248963e-31
  outer loop
    vertex 0.6156362579862037 1.6914467174146346 6.0
    vertex 0.3125667198004746 1.7726539554219738 3.877453913503359e-15
    vertex 0.6156362579862037 1.6914467174146346 3.877453913503359e-15
  endloop
endfacet
facet normal -0.2588190451025204 -0.9659258262890685 1.2121315330248963e-31
  outer loop
    vertex 0.3125667198004746 1.7726539554219738 3.877453913503359e-15
    vertex 0.6156362579862037 1.6914467174146346 6.0
    vertex 0.3125667198004746 1.7726539554219738 6.0
  endloop
endfacet
facet normal -0.0871557427476589 -0.9961946980917455 9.513632268537326e-32
  outer loop
    vertex 0.3125667198004746 1.7726539554219738 6.0
    vertex 1.1021821192326153e-16 1.7999999999999996 3.877453913503359e-15
    vertex 0.3125667198004746 1.7726539554219738 3.877453913503359e-15
  endloop
endfacet
facet normal -0.0871557427476589 -0.9961946980917455 9.513632268537326e-32
  outer loop
    vertex 1.1021821192326153e-16 1.7999999999999996 3.877453913503359e-15
    vertex 0.3125667198004746 1.7726539554219738 6.0
    vertex 1.1021821192326177e-16 1.7999999999999996 6.0
  endloop
endfacet
facet normal 0.08715574274765887 -0.9961946980917457 6.616882304476355e-32
  outer loop
    vertex 1.1021821192326177e-16 1.7999999999999996 6.0
    vertex -0.31256671980047446 1.7726539554219738 3.877453913503359e-15
    vertex 1.1021821192326153e-16 1.7999999999999996 3.877453913503359e-15
  endloop
endfacet
facet normal 0.08715574274765887 -0.9961946980917457 6.616882304476355e-32
  outer loop
    vertex -0.31256671980047446 1.7726539554219738 3.877453913503359e-15
    vertex 1.1021821192326177e-16 1.7999999999999996 6.0
    vertex -0.31256671980047446 1.7726539554219738 6.0
  endloop
endfacet
facet normal 0.2588190451025194 -0.9659258262890688 3.519081719897938e-32
  outer loop
    vertex -0.31256671980047446 1.7726539554219738 6.0
    vertex -0.6156362579862035 1.6914467174146348 3.877453913503359e-15
    vertex -0.31256671980047446 1.7726539554219738 3.877453913503359e-15
  endloop
endfacet
facet normal 0.2588190451025194 -0.9659258262890688 3.519081719897938e-32
  outer loop
    vertex -0.6156362579862035 1.6914467174146348 3.877453913503359e-15
    vertex -0.31256671980047446 1.7726539554219738 6.0
    vertex -0.6156362579862035 1.6914467174146348 6.0
  endloop
endfacet
facet normal 0.4226182617406997 -0.9063077870366498 3.14355618001626e-33
  outer loop
    vertex -0.6156362579862035 1.6914467174146348 6.0
    vertex -0.8999999999999994 1.5588457268119895 3.877453913503359e-15
    vertex -0.6156362579862035 1.6914467174146348 3.877453913503359e-15
  endloop
endfacet
facet normal 0.4226182617406997 -0.9063077870366498 3.14355618001626e-33
  outer loop
    vertex -0.8999999999999994 1.5588457268119895 3.877453913503359e-15
    vertex -0.6156362579862035 1.6914467174146348 6.0
    vertex -0.8999999999999994 1.5588457268119895 6.0
  endloop
endfacet
facet normal 0.5735764363510459 -0.8191520442889919 -2.899922020276008e-32
  outer loop
    vertex -0.8999999999999994 1.5588457268119895 6.0
    vertex -1.1570176974357698 1.3788799976141608 3.877453913503359e-15
    vertex -0.8999999999999994 1.5588457268119895 3.877453913503359e-15
  endloop
endfacet
facet normal 0.5735764363510459 -0.8191520442889919 -2.899922020276008e-32
  outer loop
    vertex -1.1570176974357698 1.3788799976141608 3.877453913503359e-15
    vertex -0.8999999999999994 1.5588457268119895 6.0
    vertex -1.1570176974357698 1.3788799976141608 6.0
  endloop
endfacet
facet normal 0.707106781186547 -0.7071067811865481 -6.026086995398901e-32
  outer loop
    vertex -1.1570176974357698 1.3788799976141608 6.0
    vertex -1.3788799976141595 1.1570176974357713 3.877453913503359e-15
    vertex -1.1570176974357698 1.3788799976141608 3.877453913503359e-15
  endloop
endfacet
facet normal 0.707106781186547 -0.7071067811865481 -6.026086995398901e-32
  outer loop
    vertex -1.3788799976141595 1.1570176974357713 3.877453913503359e-15
    vertex -1.1570176974357698 1.3788799976141608 6.0
    vertex -1.3788799976141595 1.1570176974357713 6.0
  endloop
endfacet
facet normal 0.8191520442889915 -0.5735764363510467 -8.969152366513762e-32
  outer loop
    vertex -1.3788799976141595 1.1570176974357713 3.877453913503359e-15
    vertex -1.5588457268119886 0.900000000000001 6.0
    vertex -1.5588457268119886 0.900000000000001 3.877453913503359e-15
  endloop
endfacet
facet normal 0.8191520442889915 -0.5735764363510467 -8.969152366513762e-32
  outer loop
    vertex -1.5588457268119886 0.900000000000001 6.0
    vertex -1.3788799976141595 1.1570176974357713 3.877453913503359e-15
    vertex -1.3788799976141595 1.1570176974357713 6.0
  endloop
endfacet
facet normal 0.9063077870366499 -0.4226182617406996 -1.16396945815822e-31
  outer loop
    vertex -1.5588457268119886 0.900000000000001 3.877453913503359e-15
    vertex -1.691446717414634 0.6156362579862054 6.0
    vertex -1.691446717414634 0.6156362579862054 3.877453913503359e-15
  endloop
endfacet
facet normal 0.9063077870366499 -0.4226182617406996 -1.16396945815822e-31
  outer loop
    vertex -1.691446717414634 0.6156362579862054 6.0
    vertex -1.5588457268119886 0.900000000000001 3.877453913503359e-15
    vertex -1.5588457268119886 0.900000000000001 6.0
  endloop
endfacet
facet normal 0.965925826289068 -0.2588190451025218 -1.3956570566758897e-31
  outer loop
    vertex -1.691446717414634 0.6156362579862054 3.877453913503359e-15
    vertex -1.7726539554219736 0.31256671980047673 6.0
    vertex -1.7726539554219736 0.31256671980047673 3.877453913503359e-15
  endloop
endfacet
facet normal 0.965925826289068 -0.2588190451025218 -1.3956570566758897e-31
  outer loop
    vertex -1.7726539554219736 0.31256671980047673 6.0
    vertex -1.691446717414634 0.6156362579862054 3.877453913503359e-15
    vertex -1.691446717414634 0.6156362579862054 6.0
  endloop
endfacet
facet normal 0.9961946980917455 -0.08715574274766011 1.8801021401357518e-35
  outer loop
    vertex -1.7726539554219736 0.31256671980047673 3.877453913503359e-15
    vertex -1.7999999999999996 2.618518157036861e-15 6.0
    vertex -1.7999999999999996 2.618518157036861e-15 3.877453913503359e-15
  endloop
endfacet
facet normal 0.9961946980917455 -0.08715574274766011 1.8801021401357518e-35
  outer loop
    vertex -1.7999999999999996 2.618518157036861e-15 6.0
    vertex -1.7726539554219736 0.31256671980047673 3.877453913503359e-15
    vertex -1.7726539554219736 0.31256671980047673 6.0
  endloop
endfacet
facet normal 0.9961946980917458 0.08715574274765674 -3.4195455060041964e-33
  outer loop
    vertex -1.7999999999999996 2.618518157036861e-15 3.877453913503359e-15
    vertex -1.7726539554219745 -0.3125667198004716 6.0
    vertex -1.7726539554219745 -0.3125667198004716 3.877453913503359e-15
  endloop
endfacet
facet normal 0.9961946980917458 0.08715574274765674 -3.4195455060041964e-33
  outer loop
    vertex -1.7726539554219745 -0.3125667198004716 6.0
    vertex -1.7999999999999996 2.618518157036861e-15 3.877453913503359e-15
    vertex -1.7999999999999996 2.618518157036861e-15 6.0
  endloop
endfacet
facet normal 0.9659258262890688 0.2588190451025196 -1.8147402325647877e-31
  outer loop
    vertex -1.7726539554219745 -0.3125667198004716 3.877453913503359e-15
    vertex -1.6914467174146355 -0.6156362579862004 6.0
    vertex -1.6914467174146355 -0.6156362579862004 3.877453913503359e-15
  endloop
endfacet
facet normal 0.9659258262890688 0.2588190451025196 -1.8147402325647877e-31
  outer loop
    vertex -1.6914467174146355 -0.6156362579862004 6.0
    vertex -1.7726539554219745 -0.3125667198004716 3.877453913503359e-15
    vertex -1.7726539554219745 -0.3125667198004716 6.0
  endloop
endfacet
facet normal 0.9063077870366512 0.42261826174069717 -1.848278463505109e-31
  outer loop
    vertex -1.6914467174146355 -0.6156362579862004 3.877453913503359e-15
    vertex -1.558845726811991 -0.8999999999999966 6.0
    vertex -1.558845726811991 -0.8999999999999966 3.877453913503359e-15
  endloop
endfacet
facet normal 0.9063077870366512 0.42261826174069717 -1.848278463505109e-31
  outer loop
    vertex -1.558845726811991 -0.8999999999999966 6.0
    vertex -1.6914467174146355 -0.6156362579862004 3.877453913503359e-15
    vertex -1.6914467174146355 -0.6156362579862004 6.0
  endloop
endfacet
facet normal 0.819152044288993 0.5735764363510444 -1.8256576886058573e-31
  outer loop
    vertex -1.558845726811991 -0.8999999999999966 3.877453913503359e-15
    vertex -1.3788799976141626 -1.1570176974357673 6.0
    vertex -1.3788799976141626 -1.1570176974357673 3.877453913503359e-15
  endloop
endfacet
facet normal 0.819152044288993 0.5735764363510444 -1.8256576886058573e-31
  outer loop
    vertex -1.3788799976141626 -1.1570176974357673 6.0
    vertex -1.558845726811991 -0.8999999999999966 3.877453913503359e-15
    vertex -1.558845726811991 -0.8999999999999966 6.0
  endloop
endfacet
facet normal 0.7071067811865492 0.7071067811865458 -1.7475652286656835e-31
  outer loop
    vertex -1.3788799976141626 -1.1570176974357673 3.877453913503359e-15
    vertex -1.1570176974357733 -1.3788799976141577 6.0
    vertex -1.1570176974357733 -1.3788799976141577 3.877453913503359e-15
  endloop
endfacet
facet normal 0.7071067811865492 0.7071067811865458 -1.7475652286656835e-31
  outer loop
    vertex -1.1570176974357733 -1.3788799976141577 6.0
    vertex -1.3788799976141626 -1.1570176974357673 3.877453913503359e-15
    vertex -1.3788799976141626 -1.1570176974357673 6.0
  endloop
endfacet
facet normal 0.5735764363510477 0.8191520442889908 -1.6163738835631772e-31
  outer loop
    vertex -1.1570176974357733 -1.3788799976141577 6.0
    vertex -0.9000000000000032 -1.558845726811987 3.877453913503359e-15
    vertex -1.1570176974357733 -1.3788799976141577 3.877453913503359e-15
  endloop
endfacet
facet normal 0.5735764363510477 0.8191520442889908 -1.6163738835631772e-31
  outer loop
    vertex -0.9000000000000032 -1.558845726811987 3.877453913503359e-15
    vertex -1.1570176974357733 -1.3788799976141577 6.0
    vertex -0.9000000000000032 -1.558845726811987 6.0
  endloop
endfacet
facet normal 0.4226182617407015 0.9063077870366492 -1.4360698359332544e-31
  outer loop
    vertex -0.9000000000000032 -1.558845726811987 6.0
    vertex -0.6156362579862076 -1.691446717414633 3.877453913503359e-15
    vertex -0.9000000000000032 -1.558845726811987 3.877453913503359e-15
  endloop
endfacet
facet normal 0.4226182617407015 0.9063077870366492 -1.4360698359332544e-31
  outer loop
    vertex -0.6156362579862076 -1.691446717414633 3.877453913503359e-15
    vertex -0.9000000000000032 -1.558845726811987 6.0
    vertex -0.6156362579862076 -1.691446717414633 6.0
  endloop
endfacet
facet normal 0.25881904510252307 0.9659258262890679 -1.2121315330249e-31
  outer loop
    vertex -0.6156362579862076 -1.691446717414633 6.0
    vertex -0.3125667198004793 -1.7726539554219731 3.877453913503359e-15
    vertex -0.6156362579862076 -1.691446717414633 3.877453913503359e-15
  endloop
endfacet
facet normal 0.25881904510252307 0.9659258262890679 -1.2121315330249e-31
  outer loop
    vertex -0.3125667198004793 -1.7726539554219731 3.877453913503359e-15
    vertex -0.6156362579862076 -1.691446717414633 6.0
    vertex -0.3125667198004793 -1.7726539554219731 6.0
  endloop
endfacet
facet normal 0.08715574274766122 0.9961946980917453 -9.513632268537362e-32
  outer loop
    vertex -0.3125667198004793 -1.7726539554219731 6.0
    vertex -5.12681810215046e-15 -1.7999999999999996 3.877453913503359e-15
    vertex -0.3125667198004793 -1.7726539554219731 3.877453913503359e-15
  endloop
endfacet
facet normal 0.08715574274766122 0.9961946980917453 -9.513632268537362e-32
  outer loop
    vertex -5.12681810215046e-15 -1.7999999999999996 3.877453913503359e-15
    vertex -0.3125667198004793 -1.7726539554219731 6.0
    vertex -5.12681810215046e-15 -1.7999999999999996 6.0
  endloop
endfacet
facet normal -0.08715574274765561 0.9961946980917458 -6.616882304476412e-32
  outer loop
    vertex -5.12681810215046e-15 -1.7999999999999996 6.0
    vertex 0.31256671980046913 -1.772653955421975 3.877453913503359e-15
    vertex -5.12681810215046e-15 -1.7999999999999996 3.877453913503359e-15
  endloop
endfacet
facet normal -0.08715574274765561 0.9961946980917458 -6.616882304476412e-32
  outer loop
    vertex 0.31256671980046913 -1.772653955421975 3.877453913503359e-15
    vertex -5.12681810215046e-15 -1.7999999999999996 6.0
    vertex 0.31256671980046913 -1.772653955421975 6.0
  endloop
endfacet
facet normal -0.25881904510251735 0.9659258262890693 -3.5190817198979764e-32
  outer loop
    vertex 0.31256671980046913 -1.772653955421975 6.0
    vertex 0.6156362579861981 -1.6914467174146366 3.877453913503359e-15
    vertex 0.31256671980046913 -1.772653955421975 3.877453913503359e-15
  endloop
endfacet
facet normal -0.25881904510251735 0.9659258262890693 -3.5190817198979764e-32
  outer loop
    vertex 0.6156362579861981 -1.6914467174146366 3.877453913503359e-15
    vertex 0.31256671980046913 -1.772653955421975 6.0
    vertex 0.6156362579861981 -1.6914467174146366 6.0
  endloop
endfacet
facet normal -0.42261826174069667 0.9063077870366513 -3.143556180016872e-33
  outer loop
    vertex 0.6156362579861981 -1.6914467174146366 6.0
    vertex 0.8999999999999942 -1.5588457268119922 3.877453913503359e-15
    vertex 0.6156362579861981 -1.6914467174146366 3.877453913503359e-15
  endloop
endfacet
facet normal -0.42261826174069667 0.9063077870366513 -3.143556180016872e-33
  outer loop
    vertex 0.8999999999999942 -1.5588457268119922 3.877453913503359e-15
    vertex 0.6156362579861981 -1.6914467174146366 6.0
    vertex 0.8999999999999942 -1.5588457268119922 6.0
  endloop
endfacet
facet normal -0.5735764363510434 0.8191520442889937 2.899922020275951e-32
  outer loop
    vertex 0.8999999999999942 -1.5588457268119922 6.0
    vertex 1.1570176974357653 -1.3788799976141644 3.877453913503359e-15
    vertex 0.8999999999999942 -1.5588457268119922 3.877453913503359e-15
  endloop
endfacet
facet normal -0.5735764363510434 0.8191520442889937 2.899922020275951e-32
  outer loop
    vertex 1.1570176974357653 -1.3788799976141644 3.877453913503359e-15
    vertex 0.8999999999999942 -1.5588457268119922 6.0
    vertex 1.1570176974357653 -1.3788799976141644 6.0
  endloop
endfacet
facet normal -0.7071067811865447 0.7071067811865503 6.026086995398844e-32
  outer loop
    vertex 1.1570176974357653 -1.3788799976141644 6.0
    vertex 1.3788799976141557 -1.1570176974357758 3.877453913503359e-15
    vertex 1.1570176974357653 -1.3788799976141644 3.877453913503359e-15
  endloop
endfacet
facet normal -0.7071067811865447 0.7071067811865503 6.026086995398844e-32
  outer loop
    vertex 1.3788799976141557 -1.1570176974357758 3.877453913503359e-15
    vertex 1.1570176974357653 -1.3788799976141644 6.0
    vertex 1.3788799976141557 -1.1570176974357758 6.0
  endloop
endfacet
facet normal -0.8191520442889894 0.5735764363510496 8.969152366513705e-32
  outer loop
    vertex 1.5588457268119855 -0.9000000000000061 6.0
    vertex 1.3788799976141557 -1.1570176974357758 3.877453913503359e-15
    vertex 1.3788799976141557 -1.1570176974357758 6.0
  endloop
endfacet
facet normal -0.8191520442889894 0.5735764363510496 8.969152366513705e-32
  outer loop
    vertex 1.3788799976141557 -1.1570176974357758 3.877453913503359e-15
    vertex 1.5588457268119855 -0.9000000000000061 6.0
    vertex 1.5588457268119855 -0.9000000000000061 3.877453913503359e-15
  endloop
endfacet
facet normal -0.9063077870366483 0.42261826174070316 1.1639694581582144e-31
  outer loop
    vertex 1.6914467174146322 -0.6156362579862107 6.0
    vertex 1.5588457268119855 -0.9000000000000061 3.877453913503359e-15
    vertex 1.5588457268119855 -0.9000000000000061 6.0
  endloop
endfacet
facet normal -0.9063077870366483 0.42261826174070316 1.1639694581582144e-31
  outer loop
    vertex 1.5588457268119855 -0.9000000000000061 3.877453913503359e-15
    vertex 1.6914467174146322 -0.6156362579862107 6.0
    vertex 1.6914467174146322 -0.6156362579862107 3.877453913503359e-15
  endloop
endfacet
facet normal -0.9659258262890674 0.2588190451025242 1.3956570566758869e-31
  outer loop
    vertex 1.7726539554219725 -0.3125667198004825 6.0
    vertex 1.6914467174146322 -0.6156362579862107 3.877453913503359e-15
    vertex 1.6914467174146322 -0.6156362579862107 6.0
  endloop
endfacet
facet normal -0.9659258262890674 0.2588190451025242 1.3956570566758869e-31
  outer loop
    vertex 1.6914467174146322 -0.6156362579862107 3.877453913503359e-15
    vertex 1.7726539554219725 -0.3125667198004825 6.0
    vertex 1.7726539554219725 -0.3125667198004825 3.877453913503359e-15
  endloop
endfacet
facet normal -0.9961946980917453 0.08715574274766115 2.41952127181164e-19
  outer loop
    vertex 1.7999999999999996 0.0 6.0
    vertex 1.7726539554219725 -0.3125667198004825 3.877453913503359e-15
    vertex 1.7726539554219725 -0.3125667198004825 6.0
  endloop
endfacet
facet normal -0.9961946980917453 0.08715574274766115 2.41952127181164e-19
  outer loop
    vertex 1.7726539554219725 -0.3125667198004825 3.877453913503359e-15
    vertex 1.7999999999999996 0.0 6.0
    vertex 1.7999999999999996 -4.857639155451959e-31 3.877453913503359e-15
  endloop
endfacet
facet normal -6.812046893232835e-18 1.712775917553268e-31 -1.0
  outer loop
    vertex -1.8385066634855465 1.5426902632476953 0.0
    vertex -1.7726539554219736 0.31256671980047673 3.877453913503359e-15
    vertex -1.7999999999999996 2.618518157036861e-15 3.877453913503359e-15
  endloop
endfacet
facet normal -6.812046893232835e-18 1.712775917553268e-31 -1.0
  outer loop
    vertex -1.7726539554219736 0.31256671980047673 3.877453913503359e-15
    vertex -1.8385066634855465 1.5426902632476953 0.0
    vertex -1.5426902632476933 1.8385066634855478 0.0
  endloop
endfacet
facet normal -6.812046893232835e-18 1.712775917553268e-31 -1.0
  outer loop
    vertex -1.7726539554219736 0.31256671980047673 3.877453913503359e-15
    vertex -1.5426902632476933 1.8385066634855478 0.0
    vertex -1.691446717414634 0.6156362579862054 3.877453913503359e-15
  endloop
endfacet
facet normal -6.812046893232835e-18 1.712775917553268e-31 -1.0
  outer loop
    vertex -1.691446717414634 0.6156362579862054 3.877453913503359e-15
    vertex -1.5426902632476933 1.8385066634855478 0.0
    vertex -1.5588457268119886 0.900000000000001 3.877453913503359e-15
  endloop
endfacet
facet normal -6.812046893232835e-18 1.712775917553268e-31 -1.0
  outer loop
    vertex -1.5588457268119886 0.900000000000001 3.877453913503359e-15
    vertex -1.5426902632476933 1.8385066634855478 0.0
    vertex -1.3788799976141595 1.1570176974357713 3.877453913503359e-15
  endloop
endfacet
facet normal -6.812046893232835e-18 1.712775917553268e-31 -1.0
  outer loop
    vertex -1.3788799976141595 1.1570176974357713 3.877453913503359e-15
    vertex -1.5426902632476933 1.8385066634855478 0.0
    vertex -1.1999999999999993 2.078460969082653 0.0
  endloop
endfacet
facet normal -6.812046893232835e-18 1.712775917553268e-31 -1.0
  outer loop
    vertex -1.3788799976141595 1.1570176974357713 3.877453913503359e-15
    vertex -1.1999999999999993 2.078460969082653 0.0
    vertex -1.1570176974357698 1.3788799976141608 3.877453913503359e-15
  endloop
endfacet
facet normal -6.812046893232835e-18 1.712775917553268e-31 -1.0
  outer loop
    vertex -1.1570176974357698 1.3788799976141608 3.877453913503359e-15
    vertex -1.1999999999999993 2.078460969082653 0.0
    vertex -0.8208483439816048 2.25526228988618 0.0
  endloop
endfacet
facet normal -6.812046893232835e-18 1.712775917553268e-31 -1.0
  outer loop
    vertex -1.1570176974357698 1.3788799976141608 3.877453913503359e-15
    vertex -0.8208483439816048 2.25526228988618 0.0
    vertex -0.8999999999999994 1.5588457268119895 3.877453913503359e-15
  endloop
endfacet
facet normal -6.812046893232835e-18 1.712775917553268e-31 -1.0
  outer loop
    vertex -0.8999999999999994 1.5588457268119895 3.877453913503359e-15
    vertex -0.8208483439816048 2.25526228988618 0.0
    vertex -0.6156362579862035 1.6914467174146348 3.877453913503359e-15
  endloop
endfacet
facet normal -6.812046893232835e-18 1.712775917553268e-31 -1.0
  outer loop
    vertex -0.6156362579862035 1.6914467174146348 3.877453913503359e-15
    vertex -0.8208483439816048 2.25526228988618 0.0
    vertex -0.41675562640063274 2.363538607229299 0.0
  endloop
endfacet
facet normal -6.812046893232835e-18 1.712775917553268e-31 -1.0
  outer loop
    vertex -0.6156362579862035 1.6914467174146348 3.877453913503359e-15
    vertex -0.41675562640063274 2.363538607229299 0.0
    vertex -0.31256671980047446 1.7726539554219738 3.877453913503359e-15
  endloop
endfacet
facet normal -6.812046893232835e-18 1.712775917553268e-31 -1.0
  outer loop
    vertex -0.31256671980047446 1.7726539554219738 3.877453913503359e-15
    vertex -0.41675562640063274 2.363538607229299 0.0
    vertex 1.4695761589768238e-16 2.4 0.0
  endloop
endfacet
facet normal -6.812046893232835e-18 1.712775917553268e-31 -1.0
  outer loop
    vertex -0.31256671980047446 1.7726539554219738 3.877453913503359e-15
    vertex 1.4695761589768238e-16 2.4 0.0
    vertex 1.1021821192326153e-16 1.7999999999999996 3.877453913503359e-15
  endloop
endfacet
facet normal -6.812046893232835e-18 1.712775917553268e-31 -1.0
  outer loop
    vertex 1.1021821192326153e-16 1.7999999999999996 3.877453913503359e-15
    vertex 1.4695761589768238e-16 2.4 0.0
    vertex 0.3125667198004746 1.7726539554219738 3.877453913503359e-15
  endloop
endfacet
facet normal -6.812046893232835e-18 1.712775917553268e-31 -1.0
  outer loop
    vertex 0.3125667198004746 1.7726539554219738 3.877453913503359e-15
    vertex 1.4695761589768238e-16 2.4 0.0
    vertex 0.416755626400633 2.363538607229299 0.0
  endloop
endfacet
facet normal -6.812046893232835e-18 1.712775917553268e-31 -1.0
  outer loop
    vertex 0.3125667198004746 1.7726539554219738 3.877453913503359e-15
    vertex 0.416755626400633 2.363538607229299 0.0
    vertex 0.6156362579862037 1.6914467174146346 3.877453913503359e-15
  endloop
endfacet
facet normal -6.812046893232835e-18 1.712775917553268e-31 -1.0
  outer loop
    vertex 0.6156362579862037 1.6914467174146346 3.877453913503359e-15
    vertex 0.416755626400633 2.363538607229299 0.0
    vertex 0.8208483439816052 2.2552622898861796 0.0
  endloop
endfacet
facet normal -6.812046893232835e-18 1.712775917553268e-31 -1.0
  outer loop
    vertex 0.6156362579862037 1.6914467174146346 3.877453913503359e-15
    vertex 0.8208483439816052 2.2552622898861796 0.0
    vertex 0.8999999999999999 1.558845726811989 3.877453913503359e-15
  endloop
endfacet
facet normal -6.812046893232835e-18 1.712775917553268e-31 -1.0
  outer loop
    vertex 0.8999999999999999 1.558845726811989 3.877453913503359e-15
    vertex 0.8208483439816052 2.2552622898861796 0.0
    vertex 1.2000000000000002 2.078460969082652 0.0
  endloop
endfacet
facet normal -6.812046893232835e-18 1.712775917553268e-31 -1.0
  outer loop
    vertex 0.8999999999999999 1.558845726811989 3.877453913503359e-15
    vertex 1.2000000000000002 2.078460969082652 0.0
    vertex 1.1570176974357707 1.37887999761416 3.877453913503359e-15
  endloop
endfacet
facet normal -6.812046893232835e-18 1.712775917553268e-31 -1.0
  outer loop
    vertex 1.1570176974357707 1.37887999761416 3.877453913503359e-15
    vertex 1.2000000000000002 2.078460969082652 0.0
    vertex 1.3788799976141601 1.1570176974357704 3.877453913503359e-15
  endloop
endfacet
facet normal -6.812046893232835e-18 1.712775917553268e-31 -1.0
  outer loop
    vertex 1.3788799976141601 1.1570176974357704 3.877453913503359e-15
    vertex 1.2000000000000002 2.078460969082652 0.0
    vertex 1.5426902632476942 1.8385066634855471 0.0
  endloop
endfacet
facet normal -6.812046893232835e-18 1.712775917553268e-31 -1.0
  outer loop
    vertex 1.3788799976141601 1.1570176974357704 3.877453913503359e-15
    vertex 1.5426902632476942 1.8385066634855471 0.0
    vertex 1.5588457268119893 0.8999999999999996 3.877453913503359e-15
  endloop
endfacet
facet normal -6.812046893232835e-18 1.712775917553268e-31 -1.0
  outer loop
    vertex 1.5588457268119893 0.8999999999999996 3.877453913503359e-15
    vertex 1.5426902632476942 1.8385066634855471 0.0
    vertex 1.8385066634855476 1.5426902632476942 0.0
  endloop
endfacet
facet normal -6.812046893232835e-18 1.712775917553268e-31 -1.0
  outer loop
    vertex 1.5588457268119893 0.8999999999999996 3.877453913503359e-15
    vertex 1.8385066634855476 1.5426902632476942 0.0
    vertex 1.6914467174146348 0.6156362579862035 3.877453913503359e-15
  endloop
endfacet
facet normal -6.812046893232835e-18 1.712775917553268e-31 -1.0
  outer loop
    vertex 1.6914467174146348 0.6156362579862035 3.877453913503359e-15
    vertex 1.8385066634855476 1.5426902632476942 0.0
    vertex 1.7726539554219738 0.3125667198004745 3.877453913503359e-15
  endloop
endfacet
facet normal -6.812046893232835e-18 1.712775917553268e-31 -1.0
  outer loop
    vertex 1.7726539554219738 0.3125667198004745 3.877453913503359e-15
    vertex 1.8385066634855476 1.5426902632476942 0.0
    vertex 1.7999999999999996 -4.857639155451959e-31 3.877453913503359e-15
  endloop
endfacet
facet normal -6.812046893232835e-18 1.712775917553268e-31 -1.0
  outer loop
    vertex 1.7999999999999996 -4.857639155451959e-31 3.877453913503359e-15
    vertex 1.8385066634855476 1.5426902632476942 0.0
    vertex 1.8385066634855411 -1.5426902632477013 0.0
  endloop
endfacet
facet normal -6.812046893232835e-18 1.712775917553268e-31 -1.0
  outer loop
    vertex 1.8385066634855411 -1.5426902632477013 0.0
    vertex 1.8385066634855476 1.5426902632476942 0.0
    vertex 2.0784609690826477 -1.2000000000000084 0.0
  endloop
endfacet
facet normal -6.812046893232835e-18 1.712775917553268e-31 -1.0
  outer loop
    vertex 2.0784609690826477 -1.2000000000000084 0.0
    vertex 1.8385066634855476 1.5426902632476942 0.0
    vertex 2.0784609690826525 1.1999999999999997 0.0
  endloop
endfacet
facet normal -6.812046893232835e-18 1.712775917553268e-31 -1.0
  outer loop
    vertex 2.0784609690826477 -1.2000000000000084 0.0
    vertex 2.0784609690826525 1.1999999999999997 0.0
    vertex 2.255262289886176 -0.8208483439816145 0.0
  endloop
endfacet
facet normal -6.812046893232835e-18 1.712775917553268e-31 -1.0
  outer loop
    vertex 2.255262289886176 -0.8208483439816145 0.0
    vertex 2.0784609690826525 1.1999999999999997 0.0
    vertex 2.25526228988618 0.8208483439816048 0.0
  endloop
endfacet
facet normal -6.812046893232835e-18 1.712775917553268e-31 -1.0
  outer loop
    vertex 2.255262289886176 -0.8208483439816145 0.0
    vertex 2.25526228988618 0.8208483439816048 0.0
    vertex 2.363538607229297 -0.4167556264006434 0.0
  endloop
endfacet
facet normal -6.812046893232835e-18 1.712775917553268e-31 -1.0
  outer loop
    vertex 2.363538607229297 -0.4167556264006434 0.0
    vertex 2.25526228988618 0.8208483439816048 0.0
    vertex 2.363538607229299 0.41675562640063274 0.0
  endloop
endfacet
facet normal -6.812046893232835e-18 1.712775917553268e-31 -1.0
  outer loop
    vertex 2.363538607229297 -0.4167556264006434 0.0
    vertex 2.363538607229299 0.41675562640063274 0.0
    vertex 2.4 0.0 0.0
  endloop
endfacet
facet normal -6.812046893232835e-18 1.712775917553268e-31 -1.0
  outer loop
    vertex -2.3635386072292985 0.41675562640063574 0.0
    vertex -2.3635386072293 -0.41675562640062885 0.0
    vertex -2.4 3.491357542715815e-15 0.0
  endloop
endfacet
facet normal -6.812046893232835e-18 1.712775917553268e-31 -1.0
  outer loop
    vertex -2.3635386072293 -0.41675562640062885 0.0
    vertex -2.3635386072292985 0.41675562640063574 0.0
    vertex -2.2552622898861814 -0.8208483439816008 0.0
  endloop
endfacet
facet normal -6.812046893232835e-18 1.712775917553268e-31 -1.0
  outer loop
    vertex -2.2552622898861814 -0.8208483439816008 0.0
    vertex -2.3635386072292985 0.41675562640063574 0.0
    vertex -2.255262289886179 0.8208483439816073 0.0
  endloop
endfacet
facet normal -6.812046893232835e-18 1.712775917553268e-31 -1.0
  outer loop
    vertex -2.2552622898861814 -0.8208483439816008 0.0
    vertex -2.255262289886179 0.8208483439816073 0.0
    vertex -2.078460969082655 -1.1999999999999957 0.0
  endloop
endfacet
facet normal -6.812046893232835e-18 1.712775917553268e-31 -1.0
  outer loop
    vertex -2.078460969082655 -1.1999999999999957 0.0
    vertex -2.255262289886179 0.8208483439816073 0.0
    vertex -2.0784609690826517 1.2000000000000015 0.0
  endloop
endfacet
facet normal -6.812046893232835e-18 1.712775917553268e-31 -1.0
  outer loop
    vertex -2.078460969082655 -1.1999999999999957 0.0
    vertex -2.0784609690826517 1.2000000000000015 0.0
    vertex -1.8385066634855507 -1.54269026324769 0.0
  endloop
endfacet
facet normal -6.812046893232835e-18 1.712775917553268e-31 -1.0
  outer loop
    vertex -1.8385066634855507 -1.54269026324769 0.0
    vertex -2.0784609690826517 1.2000000000000015 0.0
    vertex -1.8385066634855465 1.5426902632476953 0.0
  endloop
endfacet
facet normal -6.812046893232835e-18 1.712775917553268e-31 -1.0
  outer loop
    vertex -1.8385066634855507 -1.54269026324769 0.0
    vertex -1.8385066634855465 1.5426902632476953 0.0
    vertex -1.7999999999999996 2.618518157036861e-15 3.877453913503359e-15
  endloop
endfacet
facet normal -6.812046893232835e-18 1.712775917553268e-31 -1.0
  outer loop
    vertex -1.8385066634855507 -1.54269026324769 0.0
    vertex -1.7999999999999996 2.618518157036861e-15 3.877453913503359e-15
    vertex -1.7726539554219745 -0.3125667198004716 3.877453913503359e-15
  endloop
endfacet
facet normal -6.812046893232835e-18 1.712775917553268e-31 -1.0
  outer loop
    vertex -1.8385066634855507 -1.54269026324769 0.0
    vertex -1.7726539554219745 -0.3125667198004716 3.877453913503359e-15
    vertex -1.542690263247698 -1.838506663485544 0.0
  endloop
endfacet
facet normal -6.812046893232835e-18 1.712775917553268e-31 -1.0
  outer loop
    vertex -1.542690263247698 -1.838506663485544 0.0
    vertex -1.7726539554219745 -0.3125667198004716 3.877453913503359e-15
    vertex -1.6914467174146355 -0.6156362579862004 3.877453913503359e-15
  endloop
endfacet
facet normal -6.812046893232835e-18 1.712775917553268e-31 -1.0
  outer loop
    vertex -1.542690263247698 -1.838506663485544 0.0
    vertex -1.6914467174146355 -0.6156362579862004 3.877453913503359e-15
    vertex -1.558845726811991 -0.8999999999999966 3.877453913503359e-15
  endloop
endfacet
facet normal -6.812046893232835e-18 1.712775917553268e-31 -1.0
  outer loop
    vertex -1.542690263247698 -1.838506663485544 0.0
    vertex -1.558845726811991 -0.8999999999999966 3.877453913503359e-15
    vertex -1.3788799976141626 -1.1570176974357673 3.877453913503359e-15
  endloop
endfacet
facet normal -6.812046893232835e-18 1.712775917553268e-31 -1.0
  outer loop
    vertex -1.542690263247698 -1.838506663485544 0.0
    vertex -1.3788799976141626 -1.1570176974357673 3.877453913503359e-15
    vertex -1.2000000000000046 -2.07846096908265 0.0
  endloop
endfacet
facet normal -6.812046893232835e-18 1.712775917553268e-31 -1.0
  outer loop
    vertex -1.2000000000000046 -2.07846096908265 0.0
    vertex -1.3788799976141626 -1.1570176974357673 3.877453913503359e-15
    vertex -1.1570176974357733 -1.3788799976141577 3.877453913503359e-15
  endloop
endfacet
facet normal -6.812046893232835e-18 1.712775917553268e-31 -1.0
  outer loop
    vertex -1.2000000000000046 -2.07846096908265 0.0
    vertex -1.1570176974357733 -1.3788799976141577 3.877453913503359e-15
    vertex -0.8208483439816103 -2.255262289886178 0.0
  endloop
endfacet
facet normal -6.812046893232835e-18 1.712775917553268e-31 -1.0
  outer loop
    vertex -0.8208483439816103 -2.255262289886178 0.0
    vertex -1.1570176974357733 -1.3788799976141577 3.877453913503359e-15
    vertex -0.9000000000000032 -1.558845726811987 3.877453913503359e-15
  endloop
endfacet
facet normal -6.812046893232835e-18 1.712775917553268e-31 -1.0
  outer loop
    vertex -0.8208483439816103 -2.255262289886178 0.0
    vertex -0.9000000000000032 -1.558845726811987 3.877453913503359e-15
    vertex -0.6156362579862076 -1.691446717414633 3.877453913503359e-15
  endloop
endfacet
facet normal -6.812046893232835e-18 1.712775917553268e-31 -1.0
  outer loop
    vertex -0.8208483439816103 -2.255262289886178 0.0
    vertex -0.6156362579862076 -1.691446717414633 3.877453913503359e-15
    vertex -0.41675562640063907 -2.363538607229298 0.0
  endloop
endfacet
facet normal -6.812046893232835e-18 1.712775917553268e-31 -1.0
  outer loop
    vertex -0.41675562640063907 -2.363538607229298 0.0
    vertex -0.6156362579862076 -1.691446717414633 3.877453913503359e-15
    vertex -0.3125667198004793 -1.7726539554219731 3.877453913503359e-15
  endloop
endfacet
facet normal -6.812046893232835e-18 1.712775917553268e-31 -1.0
  outer loop
    vertex -0.41675562640063907 -2.363538607229298 0.0
    vertex -0.3125667198004793 -1.7726539554219731 3.877453913503359e-15
    vertex -6.835757469533949e-15 -2.4 0.0
  endloop
endfacet
facet normal -6.812046893232835e-18 1.712775917553268e-31 -1.0
  outer loop
    vertex -6.835757469533949e-15 -2.4 0.0
    vertex -0.3125667198004793 -1.7726539554219731 3.877453913503359e-15
    vertex -5.12681810215046e-15 -1.7999999999999996 3.877453913503359e-15
  endloop
endfacet
facet normal -6.812046893232835e-18 1.712775917553268e-31 -1.0
  outer loop
    vertex -6.835757469533949e-15 -2.4 0.0
    vertex -5.12681810215046e-15 -1.7999999999999996 3.877453913503359e-15
    vertex 0.4167556264006256 -2.3635386072293003 0.0
  endloop
endfacet
facet normal -6.812046893232835e-18 1.712775917553268e-31 -1.0
  outer loop
    vertex 0.4167556264006256 -2.3635386072293003 0.0
    vertex -5.12681810215046e-15 -1.7999999999999996 3.877453913503359e-15
    vertex 0.31256671980046913 -1.772653955421975 3.877453913503359e-15
  endloop
endfacet
facet normal -6.812046893232835e-18 1.712775917553268e-31 -1.0
  outer loop
    vertex 0.4167556264006256 -2.3635386072293003 0.0
    vertex 0.31256671980046913 -1.772653955421975 3.877453913503359e-15
    vertex 0.6156362579861981 -1.6914467174146366 3.877453913503359e-15
  endloop
endfacet
facet normal -6.812046893232835e-18 1.712775917553268e-31 -1.0
  outer loop
    vertex 0.4167556264006256 -2.3635386072293003 0.0
    vertex 0.6156362579861981 -1.6914467174146366 3.877453913503359e-15
    vertex 0.8208483439815976 -2.2552622898861827 0.0
  endloop
endfacet
facet normal -6.812046893232835e-18 1.712775917553268e-31 -1.0
  outer loop
    vertex 0.8208483439815976 -2.2552622898861827 0.0
    vertex 0.6156362579861981 -1.6914467174146366 3.877453913503359e-15
    vertex 0.8999999999999942 -1.5588457268119922 3.877453913503359e-15
  endloop
endfacet
facet normal -6.812046893232835e-18 1.712775917553268e-31 -1.0
  outer loop
    vertex 0.8208483439815976 -2.2552622898861827 0.0
    vertex 0.8999999999999942 -1.5588457268119922 3.877453913503359e-15
    vertex 1.1999999999999924 -2.078460969082657 0.0
  endloop
endfacet
facet normal -6.812046893232835e-18 1.712775917553268e-31 -1.0
  outer loop
    vertex 1.1999999999999924 -2.078460969082657 0.0
    vertex 0.8999999999999942 -1.5588457268119922 3.877453913503359e-15
    vertex 1.1570176974357653 -1.3788799976141644 3.877453913503359e-15
  endloop
endfacet
facet normal -6.812046893232835e-18 1.712775917553268e-31 -1.0
  outer loop
    vertex 1.1999999999999924 -2.078460969082657 0.0
    vertex 1.1570176974357653 -1.3788799976141644 3.877453913503359e-15
    vertex 1.3788799976141557 -1.1570176974357758 3.877453913503359e-15
  endloop
endfacet
facet normal -6.812046893232835e-18 1.712775917553268e-31 -1.0
  outer loop
    vertex 1.1999999999999924 -2.078460969082657 0.0
    vertex 1.3788799976141557 -1.1570176974357758 3.877453913503359e-15
    vertex 1.5426902632476873 -1.838506663485553 0.0
  endloop
endfacet
facet normal -6.812046893232835e-18 1.712775917553268e-31 -1.0
  outer loop
    vertex 1.5426902632476873 -1.838506663485553 0.0
    vertex 1.3788799976141557 -1.1570176974357758 3.877453913503359e-15
    vertex 1.5588457268119855 -0.9000000000000061 3.877453913503359e-15
  endloop
endfacet
facet normal -6.812046893232835e-18 1.712775917553268e-31 -1.0
  outer loop
    vertex 1.5426902632476873 -1.838506663485553 0.0
    vertex 1.5588457268119855 -0.9000000000000061 3.877453913503359e-15
    vertex 1.8385066634855411 -1.5426902632477013 0.0
  endloop
endfacet
facet normal -6.812046893232835e-18 1.712775917553268e-31 -1.0
  outer loop
    vertex 1.8385066634855411 -1.5426902632477013 0.0
    vertex 1.5588457268119855 -0.9000000000000061 3.877453913503359e-15
    vertex 1.6914467174146322 -0.6156362579862107 3.877453913503359e-15
  endloop
endfacet
facet normal -6.812046893232835e-18 1.712775917553268e-31 -1.0
  outer loop
    vertex 1.8385066634855411 -1.5426902632477013 0.0
    vertex 1.6914467174146322 -0.6156362579862107 3.877453913503359e-15
    vertex 1.7726539554219725 -0.3125667198004825 3.877453913503359e-15
  endloop
endfacet
facet normal -6.812046893232835e-18 1.712775917553268e-31 -1.0
  outer loop
    vertex 1.8385066634855411 -1.5426902632477013 0.0
    vertex 1.7726539554219725 -0.3125667198004825 3.877453913503359e-15
    vertex 1.7999999999999996 -4.857639155451959e-31 3.877453913503359e-15
  endloop
endfacet
endsolid 6mmROD
